<?xml version="1.0" encoding="UTF-8" standalone="no"?>
<svg
   xmlns:dc="http://purl.org/dc/elements/1.1/"
   xmlns:cc="http://creativecommons.org/ns#"
   xmlns:rdf="http://www.w3.org/1999/02/22-rdf-syntax-ns#"
   xmlns:svg="http://www.w3.org/2000/svg"
   xmlns="http://www.w3.org/2000/svg"
   version="1.1"
   id="svg2"
   viewBox="0 0 765.00001 990"
   height="11in"
   width="8.5in">
  <defs
     id="defs4" />
  <metadata
     id="metadata7">
    <rdf:RDF>
      <cc:Work
         rdf:about="">
        <dc:format>image/svg+xml</dc:format>
        <dc:type
           rdf:resource="http://purl.org/dc/dcmitype/StillImage" />
        <dc:title></dc:title>
      </cc:Work>
    </rdf:RDF>
  </metadata>
  <g
     transform="translate(0,-62.362205)"
     id="layer1">
    <flowRoot
       style="font-style:normal;font-weight:normal;font-size:40px;line-height:125%;font-family:sans-serif;letter-spacing:0px;word-spacing:0px;fill:#000000;fill-opacity:1;stroke:none;stroke-width:1px;stroke-linecap:butt;stroke-linejoin:miter;stroke-opacity:1"
       id="flowRoot4160"
       xml:space="preserve"><flowRegion
         id="flowRegion4162"><rect
           y="492.36221"
           x="-240"
           height="120"
           width="260"
           id="rect4164" /></flowRegion><flowPara
         id="flowPara4166"></flowPara></flowRoot>    <flowRoot
       style="font-style:normal;font-weight:normal;font-size:40px;line-height:125%;font-family:sans-serif;letter-spacing:0px;word-spacing:0px;fill:#000000;fill-opacity:1;stroke:none;stroke-width:1px;stroke-linecap:butt;stroke-linejoin:miter;stroke-opacity:1"
       id="flowRoot4198"
       xml:space="preserve"><flowRegion
         id="flowRegion4200"><rect
           y="512.36218"
           x="370"
           height="10.000022"
           width="5.6843419e-14"
           id="rect4202" /></flowRegion><flowPara
         id="flowPara4204"></flowPara></flowRoot>    <flowRoot
       style="font-style:normal;font-weight:normal;font-size:40px;line-height:125%;font-family:sans-serif;letter-spacing:0px;word-spacing:0px;fill:#000000;fill-opacity:1;stroke:none;stroke-width:1px;stroke-linecap:butt;stroke-linejoin:miter;stroke-opacity:1"
       id="flowRoot4208"
       xml:space="preserve"><flowRegion
         id="flowRegion4210"><rect
           y="622.36218"
           x="440"
           height="50"
           width="60"
           id="rect4212" /></flowRegion><flowPara
         id="flowPara4214"></flowPara></flowRoot>    <g
       transform="translate(34.368164,-1.1851091)"
       id="g4699">
      <path
         style="opacity:0;fill:none;fill-opacity:1;stroke:#000000;stroke-width:0.98955548;stroke-miterlimit:4;stroke-dasharray:none;stroke-opacity:1"
         id="path4314"
         d="M 44.444445,520.88074 A 22.839506,17.901234 0 0 1 21.629255,538.78196 22.839506,17.901234 0 0 1 -1.2345159,520.91885 22.839506,17.901234 0 0 1 21.53199,502.97959 22.839506,17.901234 0 0 1 44.444238,520.8045" />
      <g
         transform="matrix(1.2476744,-0.25862469,0.25716707,1.2155882,-220.48454,-25.221224)"
         style="font-style:normal;font-weight:normal;font-size:79.62399292px;line-height:100%;font-family:sans-serif;letter-spacing:4.37118483px;word-spacing:0px;fill:#000000;fill-opacity:1;stroke:none;stroke-width:0.98437417;stroke-linecap:butt;stroke-linejoin:miter;stroke-miterlimit:4;stroke-dasharray:none;stroke-opacity:1"
         id="text4224">
        <path
           d="m 122.54985,547.88458 q 0.4891,7.06801 -3.74519,11.85403 l 1.00971,-0.0699 q 2.81278,-0.19465 2.9675,2.04115 0.16969,2.45217 -2.93158,2.66678 l -0.43274,0.0299 q -0.14424,0.01 -2.17865,-0.0666 -2.0344,-0.0766 -4.84718,0.11802 -0.36061,0.0249 -2.29794,0.30395 l -2.86993,0.416 q -0.35562,0.0971 -1.00472,0.14199 -3.46188,0.23956 -3.64654,-2.42897 -0.19465,-2.81278 2.69026,-3.01241 0.36061,-0.025 0.36061,-0.025 l 1.95729,0.009 q 1.0147,0.002 1.59168,-0.0377 4.32736,-0.29945 6.5749,-3.42616 2.25253,-3.05459 1.89818,-8.17529 -0.3244,-4.68797 -2.82696,-7.34104 -2.49758,-2.58095 -6.39219,-2.31145 -4.54372,0.31443 -6.42292,4.57514 -0.99426,2.38777 -1.53258,8.22245 -0.776423,8.67741 -2.93687,12.0155 -3.20461,5.00464 -9.695639,5.45381 -6.779518,0.46914 -11.374124,-4.14073 -4.589615,-4.53775 -5.123634,-12.25487 -0.568954,-8.22197 4.249557,-13.9905 -0.288491,0.02 -0.644112,0.11704 -0.360613,0.025 -0.432736,0.0299 -1.143979,0.2241 -1.504591,0.24905 -2.668534,0.18466 -2.843213,-2.33963 -0.189652,-2.74065 2.839495,-2.95027 0.360613,-0.0249 0.581971,0.0322 l 3.770335,0.029 q 2.827752,0.0217 3.6211,-0.0332 1.442451,-0.0998 4.302398,-0.66006 2.859947,-0.56025 4.302398,-0.66006 3.245515,-0.22459 3.435166,2.51607 0.194642,2.81278 -3.050872,3.03736 l -1.298206,0.0898 q -0.581971,-0.0322 -1.663809,0.0427 -5.40919,0.37432 -8.343022,4.05579 -2.933832,3.68148 -2.524585,9.59553 0.379303,5.48131 3.200302,8.54716 2.820998,3.06584 7.292596,2.75641 6.851641,-0.47413 7.767315,-9.23364 l 0.436748,-4.16089 q 0.657618,-6.20528 1.8655,-9.69486 1.155723,-3.19609 3.910862,-5.27091 2.83225,-2.00769 6.5105,-2.26222 6.34679,-0.43919 10.63294,3.90215 4.28615,4.34135 4.79522,11.69785 z"
           style="font-style:normal;font-variant:normal;font-weight:normal;font-stretch:normal;font-size:72.29501343px;line-height:100%;font-family:'American Typewriter';-inkscape-font-specification:'American Typewriter, Normal';text-align:start;letter-spacing:4.37118483px;writing-mode:lr-tb;text-anchor:start;stroke-width:0.98437417;stroke-miterlimit:4;stroke-dasharray:none"
           id="path4268" />
        <path
           d="m 90.593516,600.97696 q -5.258203,1.32316 -4.358455,4.89874 0.141137,0.56087 0.56363,1.64734 0.492602,1.06882 0.633739,1.6297 0.229348,0.91142 -0.312967,1.71882 -0.454563,0.85988 -1.365985,1.08922 -2.453828,0.61748 -3.247724,-2.53744 -0.03528,-0.14022 -0.105853,-0.42066 -0.0181,-0.36819 -0.05339,-0.50841 l -0.373698,-3.55885 q -0.213542,-2.03363 -0.831017,-4.48746 -0.670401,-2.66416 -1.46246,-4.62676 l -1.372871,-3.38197 q -0.05293,-0.21033 -0.193605,-0.47313 -0.08821,-0.35055 -0.123495,-0.49076 -0.776253,-3.08482 1.677575,-3.70229 2.2435,-0.56455 2.808048,1.67895 0.141137,0.56088 0.213083,1.73555 0.142055,1.15704 0.283192,1.71791 0.882106,3.50547 6.140309,2.18231 l 4.907657,-1.23495 6.187261,-1.48239 5.9593,-1.49959 11.41018,-2.94577 q 4.97777,-1.25259 3.68989,-6.37058 l -0.5469,-2.17339 q -1.27022,-5.04787 -6.17789,-3.81292 -1.75274,0.44105 -2.36608,0.66994 l -2.52348,0.93319 q -0.61334,0.22889 -1.73509,0.51117 -4.41689,1.11145 -5.10493,-1.62281 -0.65276,-2.59405 2.57227,-3.40559 0.91143,-0.22935 3.19021,-0.65368 3.41817,-0.63649 4.3296,-0.86584 1.75273,-0.44105 3.6104,-1.05761 3.64523,-1.21547 3.08435,-1.07433 2.9446,-0.74097 3.615,1.92319 0.24699,0.98153 0.93641,4.61003 0.0882,0.35055 1.30643,5.78426 l 1.87099,8.02775 q 0.35284,1.40219 2.02792,7.46642 0.3352,1.33208 1.35707,4.50418 0.93365,2.82156 1.33942,4.43407 0.88211,3.50547 -1.99238,4.2288 l -0.14022,0.0353 q -0.70109,0.17643 -2.64697,0.44243 -1.92824,0.33612 -4.15455,0.6727 l -0.77121,0.19406 q -1.05164,0.26464 -3.24221,1.03951 -2.87403,1.02141 -3.57512,1.19783 -2.87448,0.72333 -3.56252,-2.01094 -0.6704,-2.66415 2.83507,-3.54626 1.26197,-0.31756 3.76872,-0.72471 2.57687,-0.42478 3.83884,-0.74234 4.83754,-1.21731 3.44382,-6.75595 l -0.49398,-1.96306 q -0.65276,-2.59405 -2.05679,-3.43352 -1.33391,-0.85712 -3.89313,-0.36222 l -4.96058,1.02462 -23.854839,5.92821 z"
           style="font-style:normal;font-variant:normal;font-weight:normal;font-stretch:normal;font-size:72.29501343px;line-height:100%;font-family:'American Typewriter';-inkscape-font-specification:'American Typewriter, Normal';text-align:start;letter-spacing:4.37118483px;writing-mode:lr-tb;text-anchor:start;stroke-width:0.98437417;stroke-miterlimit:4;stroke-dasharray:none"
           id="path4270" />
        <path
           d="m 127.47255,625.06021 -4.25053,1.83356 -5.42465,2.22447 -10.08012,4.72701 q -4.58186,2.14864 -6.21601,4.11271 -1.603451,2.02952 -1.46177,5.3966 0.11506,3.14003 1.40425,5.88915 1.68821,3.60004 4.25988,5.5082 2.57166,1.90817 5.20023,1.55385 2.72473,-0.31955 6.35547,-1.94231 l 16.88339,-7.75768 q 4.9746,-2.33281 5.56777,-2.77067 3.06196,-2.15454 1.77278,-4.90366 -0.21487,-0.45818 -0.74481,-1.24771 -0.77957,-1.15157 -1.02513,-1.67521 -0.39903,-0.85092 -0.0514,-1.81242 0.3783,-0.89605 1.22922,-1.29508 2.35639,-1.10502 3.70696,1.77502 0.21487,0.45818 0.36428,0.94706 l 1.28735,4.10742 q 0.47892,1.5321 1.33838,3.36485 0.82876,1.76729 1.57764,2.85341 l 1.77806,2.59971 q 0.74888,1.08611 0.93305,1.47884 1.28918,2.74912 -0.9363,3.79275 -2.22548,1.04362 -3.48397,-1.64004 l -0.33764,-0.72001 q -0.0266,-0.22706 -0.24149,-0.68525 -0.92085,-1.96366 -3.09937,-1.501 -2.17853,0.46266 -10.29498,4.26883 l -11.45467,5.3716 q -4.2546,1.99517 -6.27558,2.6235 -3.51832,1.0111 -6.73823,0.44498 -7.5363,-1.25686 -11.925673,-10.61697 -5.4023,-11.52013 0.559617,-18.38826 1.799817,-2.1216 6.643506,-4.39302 2.35639,-1.10502 7.03034,-3.0573 4.73941,-1.98297 7.0958,-3.08798 l 3.46913,-1.62683 q 4.77824,-2.24073 5.33664,-2.58244 3.38518,-2.1464 2.40294,-4.24097 -0.0614,-0.13091 -0.21486,-0.45819 -0.21893,-0.29658 -0.40717,-0.52771 -0.12278,-0.26182 -0.39903,-0.85092 -1.28919,-2.74912 0.93629,-3.79274 2.22548,-1.04363 3.39189,1.44367 0.49112,1.04729 0.84726,2.31756 0.9804,3.45287 2.26959,6.20199 1.31988,2.81458 3.62789,6.20382 0.49925,0.72408 0.92898,1.64045 1.25849,2.68367 -0.96699,3.72729 -2.22548,1.04363 -3.2998,-1.24731 -0.24556,-0.52364 -0.60577,-1.63231 -0.29475,-1.13937 -0.54031,-1.66301 -0.98224,-2.09457 -3.54536,-1.77095 -1.1353,0.13314 -4.17694,1.47965 z"
           style="font-style:normal;font-variant:normal;font-weight:normal;font-stretch:normal;font-size:72.29501343px;line-height:100%;font-family:'American Typewriter';-inkscape-font-specification:'American Typewriter, Normal';text-align:start;letter-spacing:4.37118483px;writing-mode:lr-tb;text-anchor:start;stroke-width:0.98437417;stroke-miterlimit:4;stroke-dasharray:none"
           id="path4272" />
        <path
           d="m 149.00723,663.19648 q 4.33975,-3.25054 2.12939,-6.20157 -0.39007,-0.52077 -1.02588,-1.12845 -0.95372,-0.91152 -1.34379,-1.43229 -1.34355,-1.79376 0.50807,-3.18066 2.02522,-1.51692 3.97555,1.08693 0.2167,0.28932 0.50556,0.79557 l 1.892,3.37014 q 1.06877,1.90926 2.54235,3.87661 1.21353,1.62018 2.60066,3.11033 l 3.22217,3.45773 q 0.9392,1.01273 2.28276,2.80649 3.94399,5.26556 5.08331,9.92208 1.49989,6.10265 -1.36696,12.40497 -2.82352,6.36018 -9.24635,11.17098 -5.67061,4.24737 -11.84541,5.53033 -6.11694,1.23962 -11.03168,-0.86004 -5.94107,-2.50515 -10.66519,-8.81225 -0.95349,-1.273 -1.8346,-2.69054 l -2.64332,-4.25261 q -1.34333,-2.15524 -2.99027,-4.35405 -1.43023,-1.90949 -2.51398,-2.99459 l -2.48539,-2.47406 q -0.0867,-0.11573 -0.36124,-0.3617 -0.2167,-0.28932 -0.34673,-0.46291 -1.86364,-2.48812 0.16158,-4.00504 0.81008,-0.60677 1.72092,-0.47607 0.9687,0.0874 1.53212,0.83959 0.47675,0.6365 0.99661,1.69233 0.18766,0.49173 0.79442,1.30182 2.21037,2.95103 6.55012,-0.29951 l 23.2032,-17.37956 z m 4.21924,4.42712 -24.47619,18.33304 q -2.66172,1.99367 -1.29003,5.03092 0.41866,1.04132 3.40916,5.03389 5.20086,6.9436 11.30237,7.25108 7.33047,0.38056 14.73698,-5.16703 5.78634,-4.33405 8.04528,-9.63908 2.36016,-5.29051 0.52693,-10.14989 -1.15476,-3.10942 -3.84188,-6.69695 -3.4239,-4.5712 -4.7248,-5.22267 -1.25756,-0.59362 -3.68782,1.22669 z"
           style="font-style:normal;font-variant:normal;font-weight:normal;font-stretch:normal;font-size:72.29501343px;line-height:100%;font-family:'American Typewriter';-inkscape-font-specification:'American Typewriter, Normal';text-align:start;letter-spacing:4.37118483px;writing-mode:lr-tb;text-anchor:start;stroke-width:0.98437417;stroke-miterlimit:4;stroke-dasharray:none"
           id="path4274" />
        <path
           d="m 180.06649,701.31701 q 3.55902,-3.99425 0.80623,-6.44709 -0.75567,-0.67333 -1.2297,-0.90204 -1.0079,-0.60759 -1.60164,-1.13664 -0.7017,-0.62523 -0.75463,-1.54387 -0.005,-0.97262 0.66849,-1.72829 1.68332,-1.88917 3.95033,0.13081 0.054,0.0481 0.76155,0.7754 7.61551,7.754 7.07574,7.27306 0.53977,0.48094 0.53977,0.48094 l 13.34497,11.21305 q 0.37783,0.33666 2.95105,2.339 0.91172,0.71554 1.61341,1.34078 2.80677,2.50093 0.59441,4.98385 -0.38476,0.43181 -2.66875,2.56041 -1.70097,1.58296 -2.99953,3.04032 -1.68332,1.88917 -2.2487,2.74103 -1.17885,1.7577 -1.85217,2.51337 -1.82761,2.0511 -3.77076,0.31968 -1.94315,-1.73142 0.60588,-4.59216 l 2.50094,-2.80677 q 4.03997,-4.53402 2.87222,-7.02699 -0.87434,-1.8442 -6.70379,-7.03845 -3.83232,-3.41474 -4.6783,-3.87805 -2.85002,-1.47434 -5.20668,1.1705 l -2.16427,2.42894 q -0.38476,0.43181 -1.05808,1.18748 -0.72731,0.70757 -1.01588,1.03143 l -0.62523,0.70169 q -1.9238,2.15906 -1.2408,3.34862 0.28165,0.44462 1.19925,1.26224 l 2.21303,1.97189 q 3.40051,3.02998 5.46859,0.70899 0.57714,-0.64771 1.32901,-1.81755 0.75188,-1.16983 1.4733,-1.97948 1.9238,-2.15905 3.86695,-0.42764 1.94315,1.73142 -0.12493,4.0524 -0.38476,0.43181 -3.35972,3.00987 -2.53623,2.19435 -4.21955,4.08352 -0.9619,1.07953 -3.19883,4.0247 -0.33079,0.47991 -1.41344,2.12965 -0.89616,1.33176 -1.5214,2.03346 -1.73141,1.94314 -3.67456,0.21173 -1.88918,-1.68332 0.13081,-3.95033 0.52904,-0.59374 1.64699,-1.63106 1.17192,-0.98921 1.70097,-1.58295 2.06808,-2.32099 -1.00857,-5.0624 l -2.42894,-2.16427 q -1.56531,-1.39475 -2.4241,-1.19165 -0.80481,0.25119 -2.39194,2.03241 l -2.98188,3.34654 q -0.76952,0.86362 -2.01411,2.36907 -1.53315,1.82932 -2.0622,2.42306 -1.86982,2.20715 -1.54112,3.46834 0.25707,0.90687 2.4701,2.87877 l 7.34079,6.5409 q 3.18461,2.83761 5.1897,2.9781 2.05319,0.0865 4.36174,-2.50436 0.72143,-0.80964 2.00823,-2.47115 1.38887,-1.66738 2.11029,-2.47703 2.16427,-2.42893 4.10742,-0.69752 2.0511,1.82761 -0.16126,4.31052 -0.86571,0.97158 -2.75318,2.87251 -1.88746,1.90094 -2.75317,2.87251 -0.67333,0.75567 -1.96601,2.31511 -1.19061,1.55355 -1.86394,2.30922 -2.26046,2.53688 -4.74337,0.32452 -0.59374,-0.52905 -1.79298,-1.79128 -0.59963,-0.63111 -2.32687,-2.17015 0.37783,0.33667 -4.11397,-3.85936 -4.4918,-4.19602 -7.83833,-7.1779 -5.07378,-4.52092 -10.22022,-8.52561 -0.21591,-0.19238 -0.53388,-0.37888 -0.26989,-0.24047 -0.32386,-0.28857 -2.26701,-2.01998 -0.53559,-3.96313 1.53903,-1.72724 3.2123,-0.2363 0.26988,0.24047 1.36117,1.40651 0.44946,0.69098 0.98922,1.17193 2.7528,2.45284 6.35992,-1.59539 l 19.28606,-21.64452 z"
           style="font-style:normal;font-variant:normal;font-weight:normal;font-stretch:normal;font-size:72.29501343px;line-height:100%;font-family:'American Typewriter';-inkscape-font-specification:'American Typewriter, Normal';text-align:start;letter-spacing:4.37118483px;writing-mode:lr-tb;text-anchor:start;stroke-width:0.98437417;stroke-miterlimit:4;stroke-dasharray:none"
           id="path4276" />
        <path
           d="m 227.28858,729.73078 -3.25542,44.73036 14.50584,-25.26702 q 2.80758,-4.89039 3.03284,-5.42796 1.30744,-3.58422 -1.26315,-5.06 -0.50158,-0.28795 -1.61272,-0.67578 -1.07514,-0.45052 -1.57672,-0.73847 -0.81507,-0.46793 -1.11809,-1.39216 -0.20433,-0.95092 0.2636,-1.76599 1.29581,-2.2571 4.11719,-0.63734 0.56428,0.32395 0.77907,0.53063 l 2.60541,1.99594 q 1.73694,1.33063 3.36707,2.26649 1.63013,0.93586 4.54209,2.10744 1.01245,0.41453 2.37438,0.94633 0.12539,0.072 0.47487,0.18927 0.25079,0.14397 0.43888,0.25196 2.69599,1.54777 1.43618,3.74217 -1.22382,2.13171 -3.73171,0.69193 -0.43889,-0.25197 -0.65368,-0.45864 l -0.62697,-0.35995 q -1.88092,-1.07984 -2.91313,-0.58872 -1.03221,0.49111 -2.74137,3.1778 l -2.17708,3.50176 -3.79685,6.32314 -9.61057,16.74019 q -2.48363,4.32611 -4.49464,5.50572 -1.94831,1.21561 -4.33081,-0.15219 -3.07217,-1.76374 -2.68425,-7.37637 l 3.19038,-43.60064 -16.73751,29.15426 q -2.6996,4.7023 0.49797,6.53803 0.50157,0.28795 1.57672,0.73847 1.11114,0.38783 1.61272,0.67578 2.00632,1.15183 0.81849,3.22084 -1.25981,2.19441 -4.08119,0.57465 -0.12539,-0.072 -0.37618,-0.21597 -0.2775,-0.24267 -0.40289,-0.31466 l -2.35462,-1.85196 q -1.95174,-1.53731 -3.83266,-2.61715 -1.63013,-0.93586 -4.38069,-2.09815 l -3.28814,-1.38755 q -0.12539,-0.072 -0.47488,-0.18927 -0.31348,-0.17997 -0.50157,-0.28796 -2.69599,-1.54777 -1.43618,-3.74217 1.11584,-1.94362 3.12215,-0.79179 0.31349,0.17997 1.62084,1.09725 0.58169,0.58403 1.20866,0.94398 3.19756,1.83573 5.89716,-2.86657 l 2.51963,-4.38882 3.23022,-5.48137 3.09554,-5.39197 5.62446,-9.94217 q 2.6996,-4.7023 -0.56066,-6.57402 -0.43889,-0.25196 -1.32594,-0.5945 -1.29923,-0.4958 -1.86351,-0.81976 -2.00631,-1.15182 -0.81849,-3.22084 1.25981,-2.1944 3.9558,-0.64663 0.37618,0.21597 0.96716,0.63861 2.95489,2.11322 4.64772,3.08507 0.94046,0.53992 2.92936,1.43167 1.98891,0.89175 2.92937,1.43167 1.94361,1.11583 1.8147,2.79242 l -0.1742,1.90068 z"
           style="font-style:normal;font-variant:normal;font-weight:normal;font-stretch:normal;font-size:72.29501343px;line-height:100%;font-family:'American Typewriter';-inkscape-font-specification:'American Typewriter, Normal';text-align:start;letter-spacing:4.37118483px;writing-mode:lr-tb;text-anchor:start;stroke-width:0.98437417;stroke-miterlimit:4;stroke-dasharray:none"
           id="path4278" />
        <path
           d="m 265.90785,786.23684 q -1.69331,5.15093 1.80932,6.30239 0.54944,0.18062 1.69346,0.4045 1.1666,0.1552 1.71603,0.33582 0.89283,0.29351 1.28517,1.1835 0.48359,0.84389 0.19008,1.73672 -0.79021,2.40377 -3.88077,1.38778 -0.13736,-0.0452 -0.41208,-0.13547 -0.32082,-0.18156 -0.45817,-0.22672 l -3.20724,-1.58705 q -1.83271,-0.90689 -4.23648,-1.6971 -2.6098,-0.85795 -4.69181,-1.23798 l -3.592,-0.64812 q -0.20604,-0.0677 -0.50333,-0.0894 -0.3434,-0.11288 -0.48075,-0.15804 -3.02189,-0.99341 -2.23167,-3.39718 0.72248,-2.19773 2.92021,-1.47525 0.54943,0.18062 1.58057,0.7479 1.05371,0.4986 1.60314,0.67922 3.43396,1.12887 5.12727,-4.02206 l 1.58043,-4.80754 2.0555,-6.02119 1.91909,-5.83773 3.61146,-11.21728 q 1.603,-4.87621 -3.41058,-6.52437 l -2.12905,-0.69991 q -4.9449,-1.62558 -6.52532,3.18196 -0.56444,1.71698 -0.69896,2.35767 l -0.56065,2.63144 q -0.13452,0.64069 -0.49576,1.73955 -1.42239,4.32679 -4.10087,3.44627 -2.54113,-0.83537 -1.50256,-3.99461 0.2935,-0.89283 1.15334,-3.04541 1.28976,-3.22886 1.58327,-4.12169 0.56444,-1.71698 1.03667,-3.61647 0.92189,-3.73031 0.74127,-3.18088 0.94826,-2.88452 3.55807,-2.02657 0.9615,0.31608 4.39641,1.67357 0.34339,0.11289 5.58653,1.98872 l 7.78427,2.71119 q 1.37358,0.45155 7.39382,2.27844 1.30491,0.42897 4.53188,1.2615 2.88358,0.71964 4.4632,1.23893 3.43395,1.12887 2.50828,3.94472 l -0.0452,0.13735 q -0.22577,0.6868 -1.0414,2.4734 -0.74696,1.80918 -1.6529,3.8705 l -0.24835,0.75547 q -0.33866,1.03019 -0.85511,3.29566 -0.67353,2.97483 -0.89931,3.66162 -0.92568,2.81585 -3.60417,1.93532 -2.6098,-0.85794 -1.48093,-4.2919 0.4064,-1.23622 1.40265,-3.57226 1.01883,-2.40472 1.42522,-3.64094 1.55785,-4.73886 -3.8678,-6.52249 l -1.92302,-0.63217 q -2.54112,-0.83537 -4.00123,-0.0977 -1.43753,0.66895 -2.38768,3.09624 l -1.78646,4.73981 -7.74504,23.32833 z"
           style="font-style:normal;font-variant:normal;font-weight:normal;font-stretch:normal;font-size:72.29501343px;line-height:100%;font-family:'American Typewriter';-inkscape-font-specification:'American Typewriter, Normal';text-align:start;letter-spacing:4.37118483px;writing-mode:lr-tb;text-anchor:start;stroke-width:0.98437417;stroke-miterlimit:4;stroke-dasharray:none"
           id="path4280" />
        <path
           d="m 326.04512,796.94394 q -0.21233,4.26012 0.61455,5.09757 0.61745,0.68223 1.62113,0.87703 1.07589,0.19839 4.75836,0.38193 l 6.35407,0.3167 q 4.98218,0.24832 6.70768,-0.96861 1.7291,-1.28913 1.93063,-5.33263 0.054,-1.08308 0.0538,-2.53078 -0.004,-2.82321 0.0247,-3.40085 0.15835,-3.17704 2.68554,-3.05108 3.03262,0.15115 2.88867,3.03936 -0.0432,0.86647 -0.14058,1.36831 l -0.68898,3.65728 q -0.29579,1.57772 -0.38216,3.31065 -0.0504,1.01088 -0.007,3.03982 0.11945,1.96035 0.0691,2.97122 -0.16194,3.24924 -3.84442,3.0657 -0.72205,-0.036 -3.31425,-0.30995 -1.72933,-0.15858 -5.336,-0.41073 l -5.41181,-0.34211 -11.55286,-0.57582 q -1.73293,-0.0864 -5.78362,-0.14349 -0.57765,-0.0288 -2.02895,0.0436 -1.3791,0.076 -2.17336,0.0364 -3.03263,-0.15115 -2.90307,-2.75055 0.11516,-2.31057 2.35353,-2.19901 0.57764,0.0288 1.72213,0.30299 1.14809,0.20199 1.72573,0.23078 3.68248,0.18354 3.95239,-5.23186 l 1.44313,-28.95436 q 0.26631,-5.3432 -3.41616,-5.52674 -1.01088,-0.0504 -1.52351,0.0688 -1.16608,0.15903 -1.96034,0.11945 -0.93867,-0.0468 -1.55613,-0.72903 -0.61386,-0.75444 -0.56348,-1.76532 0.12596,-2.52718 3.23079,-2.37243 0.43323,0.0216 1.07948,0.12618 l 3.8053,0.62397 q 3.15904,0.51938 4.67535,0.59495 1.87734,0.0936 4.63914,-0.1307 l 3.34304,-0.26768 q 0.58124,-0.0434 0.94227,-0.0254 3.24924,0.16194 3.12328,2.68913 -0.0504,1.01088 -0.73622,1.70054 -0.68224,0.61746 -1.62091,0.57068 -0.72205,-0.036 -1.93874,-0.31379 -0.49824,-0.1696 -1.50912,-0.21998 -3.68247,-0.18355 -3.94879,5.15965 l -1.40354,28.1601 z"
           style="font-style:normal;font-variant:normal;font-weight:normal;font-stretch:normal;font-size:72.29501343px;line-height:100%;font-family:'American Typewriter';-inkscape-font-specification:'American Typewriter, Normal';text-align:start;letter-spacing:4.37118483px;writing-mode:lr-tb;text-anchor:start;stroke-width:0.98437417;stroke-miterlimit:4;stroke-dasharray:none"
           id="path4282" />
        <path
           d="m 366.00998,768.52468 q -0.52721,-5.32379 -4.19631,-4.96044 -1.0072,0.0997 -1.49655,0.2935 -1.12972,0.32982 -1.92109,0.40819 -0.93526,0.0926 -1.64687,-0.49075 -0.71874,-0.65531 -0.81848,-1.66252 -0.24936,-2.518 2.91614,-2.83148 0.43166,-0.0427 1.01433,-0.0278 l 3.86285,0.126 q 2.1868,0.074 4.48898,-0.15394 2.23023,-0.22086 4.8565,-0.84419 l 3.1947,-0.75226 q 0.56842,-0.12894 1.00008,-0.17168 3.16549,-0.31348 3.41485,2.20453 0.0997,1.0072 -0.4765,1.79075 -0.58337,0.71161 -1.51863,0.80423 -0.71943,0.0713 -1.96384,-0.0235 -0.51785,-0.094 -1.52505,0.006 -3.6691,0.36335 -3.14189,5.68714 l 2.85693,28.84919 q 0.53433,5.39573 4.20343,5.03238 0.57555,-0.057 1.49656,-0.2935 1.34554,-0.3512 1.92109,-0.40819 2.23023,-0.22086 2.45822,2.08132 0.25648,2.58995 -2.90902,2.90343 -0.14388,0.0142 -0.5036,0.0499 -0.2949,-0.0435 -0.51072,-0.0221 l -3.79804,-0.20507 q -1.89902,-0.10254 -3.98537,0.10407 -3.02161,0.29923 -5.36011,0.89405 l -3.25951,0.83133 q -0.14389,0.0143 -0.49648,0.12182 -0.35972,0.0356 -0.57554,0.057 -3.09356,0.30636 -3.35004,-2.2836 -0.22798,-2.30218 2.00225,-2.52304 0.35972,-0.0356 1.95672,-0.0485 0.81274,0.13746 1.53217,0.0662 3.6691,-0.36334 3.13477,-5.75908 l -2.85693,-28.84918 z"
           style="font-style:normal;font-variant:normal;font-weight:normal;font-stretch:normal;font-size:72.29501343px;line-height:100%;font-family:'American Typewriter';-inkscape-font-specification:'American Typewriter, Normal';text-align:start;letter-spacing:4.37118483px;writing-mode:lr-tb;text-anchor:start;stroke-width:0.98437417;stroke-miterlimit:4;stroke-dasharray:none"
           id="path4284" />
        <path
           d="m 424.30718,758.59154 q 1.86361,7.13472 -5.483,12.19195 3.17534,0.14195 5.35627,0.76782 6.52453,1.80763 8.24198,8.38276 1.68091,6.43523 -2.28052,11.5796 -3.9797,5.07443 -12.30353,7.24865 -3.00777,0.78564 -7.7157,1.64177 -4.70794,0.85613 -6.87633,1.42253 -1.8886,0.49331 -3.51255,1.14165 l -3.17794,1.27841 q -0.13989,0.0366 -0.47136,0.19785 -0.34974,0.0914 -0.48964,0.12789 -3.02604,0.7157 -3.66552,-1.73249 -0.58466,-2.23834 1.58373,-2.80473 0.55958,-0.14617 1.94341,-0.28347 0.94587,-0.0976 1.50546,-0.24379 3.56735,-0.93181 2.21532,-6.10797 l -7.34485,-28.11917 q -1.37031,-5.24612 -4.93766,-4.31431 -0.62954,0.16444 -1.43237,0.52358 -1.20426,0.53872 -1.83379,0.70316 -2.1684,0.56639 -2.75306,-1.67195 -0.63948,-2.44819 2.57814,-3.28864 l 0.90933,-0.23752 3.55535,-0.40563 q 1.52373,-0.17384 4.04186,-0.83159 2.65803,-0.69429 7.44478,-2.39293 3.21448,-1.13852 6.99168,-2.12514 7.06477,-1.84535 11.76751,0.13926 4.75442,1.89639 6.143,7.21245 z m -26.00451,10.00548 q 0.96835,3.70725 1.8354,4.45214 0.91873,0.65667 3.9265,-0.12897 l 3.9171,-1.02316 q 12.38083,-3.23393 10.27969,-11.27797 -1.91843,-7.34456 -12.13086,-4.67703 -7.13472,1.86362 -8.57595,3.21144 -1.37129,1.32956 -0.38467,5.10676 l 1.13279,4.33679 z m 3.70896,14.19948 2.02805,7.76425 q 1.1876,4.54663 3.00052,5.19389 1.81293,0.64727 8.66785,-1.14326 13.08031,-3.41664 10.5224,-13.20938 -2.35693,-9.02332 -14.9476,-5.73458 l -5.8057,1.51647 q -3.7772,0.98662 -3.89829,2.81155 -0.0605,0.91246 0.43277,2.80106 z"
           style="font-style:normal;font-variant:normal;font-weight:normal;font-stretch:normal;font-size:72.29501343px;line-height:100%;font-family:'American Typewriter';-inkscape-font-specification:'American Typewriter, Normal';text-align:start;letter-spacing:4.37118483px;writing-mode:lr-tb;text-anchor:start;stroke-width:0.98437417;stroke-miterlimit:4;stroke-dasharray:none"
           id="path4286" />
        <path
           d="m 466.93665,750.25496 q -1.43549,1.83285 -4.03669,3.91616 4.17904,-1.16693 6.6585,0.27309 2.54435,1.40815 4.96695,6.33965 l 1.46632,2.98485 q 0.0626,0.29143 0.31763,0.81053 2.2951,4.67194 5.27995,3.20563 3.04974,-1.49819 0.30837,-7.07857 -0.95629,-1.94664 -0.95629,-1.94664 l -0.8618,-1.59033 q 0,0 -0.44627,-0.90843 -0.92442,-1.88175 -1.0155,-2.72303 -0.0228,-1.35811 1.46963,-2.09127 2.33597,-1.14755 3.67478,1.57775 0.0319,0.0649 0.63639,1.45942 l 0.60452,1.39452 q 0.60451,1.39453 0.79577,1.78386 l 0.79691,1.6222 q 0.25615,0.35745 0.63867,1.13611 1.84883,3.76351 0.75944,6.95674 -1.05637,3.09646 -4.81988,4.94529 -7.65679,3.76142 -11.45009,-3.96026 l -0.95629,-1.94665 -1.01891,-2.23807 -0.70128,-1.42753 q -2.13572,-4.34751 -4.49221,-4.88137 -2.32349,-0.63063 -7.51453,1.91949 l -6.0346,2.9645 q -2.07641,1.02005 -0.83323,3.55068 l 2.45448,4.99638 q 2.35885,4.80172 2.80739,5.38685 2.17782,2.95752 4.83823,1.65058 0.90843,-0.44627 1.2989,-0.79918 1.00746,-0.73656 1.59146,-1.02345 2.07642,-1.02004 3.16021,1.18615 1.14755,2.33597 -1.64263,3.70666 0,0 -1.03708,0.34837 l -3.72709,1.26711 q -2.13904,0.72862 -3.69635,1.49365 -1.94664,0.95629 -4.38278,2.55579 l -2.92337,1.91939 q -0.97446,0.6398 -0.90957,0.60793 -2.79019,1.37068 -3.93774,-0.96529 -1.02004,-2.07642 0.99149,-3.06459 0.32444,-0.15938 1.81573,-0.73088 0.8094,-0.15598 1.45828,-0.47474 3.30929,-1.6257 0.91856,-6.49231 l -12.78244,-26.02012 q -2.39073,-4.8666 -5.70003,-3.24091 -0.5191,0.25501 -1.46168,0.9597 -0.97446,0.6398 -1.49356,0.89481 -0.84355,0.41439 -1.71443,0.11729 -0.90275,-0.36199 -1.31715,-1.20554 -1.11567,-2.27108 1.7394,-3.67364 0.25956,-0.12751 0.94031,-0.38139 l 3.46868,-1.30125 q 1.36151,-0.50775 3.30815,-1.46405 2.01154,-0.98817 4.41353,-2.32925 l 4.80399,-2.68215 q 2.40199,-1.34108 4.47841,-2.36113 14.27538,-7.01281 19.63062,3.88839 3.15576,6.42392 -0.62818,11.1825 z m -18.26089,8.24577 6.09948,-2.99638 q 5.4506,-2.67762 7.41087,-5.57374 2.38487,-3.50746 0.21728,-7.91985 -3.63391,-7.39724 -13.75646,-2.42452 -5.38571,2.64574 -6.91796,4.44558 -1.49923,1.70307 -0.38469,4.13581 l 0.95515,2.1083 3.66579,7.46213 q 0.5419,1.10309 1.09061,1.23627 0.51683,0.0683 1.61993,-0.4736 z"
           style="font-style:normal;font-variant:normal;font-weight:normal;font-stretch:normal;font-size:72.29501343px;line-height:100%;font-family:'American Typewriter';-inkscape-font-specification:'American Typewriter, Normal';text-align:start;letter-spacing:4.37118483px;writing-mode:lr-tb;text-anchor:start;stroke-width:0.98437417;stroke-miterlimit:4;stroke-dasharray:none"
           id="path4288" />
        <path
           d="m 519.78987,735.97725 -6.40583,-3.99185 q -1.05283,-0.6463 -1.6298,-0.56362 -0.51992,0.0383 -1.66086,0.92646 l -10.15436,7.90491 q -1.14094,0.88819 -1.28645,1.6428 -0.0885,0.71019 0.60367,3.01157 l 1.76518,5.68049 q 0.26032,0.80516 0.70442,1.37563 1.4211,1.8255 3.64593,0.0935 0.57047,-0.44409 1.5085,-1.35756 0.99507,-0.95788 1.5085,-1.35756 2.33892,-1.8208 3.89326,0.17585 1.46551,1.88255 -1.1016,3.88098 -0.45637,0.35528 -1.34385,0.86292 l -3.16322,1.82115 q -0.88747,0.50764 -2.71298,1.92875 -1.99664,1.55433 -2.70648,2.29016 l -2.12951,2.20749 q -1.41968,1.47165 -2.16129,2.04898 -2.22483,1.73197 -3.69035,-0.15058 -1.55434,-1.99664 0.61345,-3.68421 0.45638,-0.35527 0.72897,-0.47586 l 0.74161,-0.57733 q 1.54027,-1.19906 1.40633,-3.01878 -0.013,-0.72283 -0.94631,-3.5694 l -11.7273,-36.95481 q -0.95245,-3.10653 1.72876,-5.19378 2.62416,-2.04284 5.34507,-0.31301 l 32.23857,20.34598 q 3.05704,1.92624 4.52185,2.16021 1.4648,0.23397 2.94802,-0.92068 0.45637,-0.35527 0.64015,-0.58996 1.5085,-1.35756 1.5085,-1.35756 2.16778,-1.68757 3.58889,0.13794 1.50993,1.93959 -0.65786,3.62716 -0.62751,0.4885 -1.74318,1.17378 -3.90483,2.39848 -5.67328,3.77518 -2.11074,1.64315 -6.49036,5.78552 -1.10917,1.0467 -1.73668,1.5352 -2.28188,1.77639 -3.79181,-0.16321 -1.50993,-1.9396 1.00014,-3.89362 0.51342,-0.39968 1.57204,-1.04055 1.11567,-0.68528 1.62909,-1.08497 1.88255,-1.46552 0.68349,-3.00578 -0.17764,-0.22819 -1.61103,-1.12795 z m -13.16694,-8.44009 -17.39127,-11.7481 7.00873,19.83065 q 0.15236,0.4311 0.19677,0.48815 0.39969,0.51342 1.25539,-0.15272 l 9.07047,-7.06113 q 0.68456,-0.53292 0.32928,-0.98929 -0.0888,-0.1141 -0.46937,-0.36756 z"
           style="font-style:normal;font-variant:normal;font-weight:normal;font-stretch:normal;font-size:72.29501343px;line-height:100%;font-family:'American Typewriter';-inkscape-font-specification:'American Typewriter, Normal';text-align:start;letter-spacing:4.37118483px;writing-mode:lr-tb;text-anchor:start;stroke-width:0.98437417;stroke-miterlimit:4;stroke-dasharray:none"
           id="path4290" />
        <path
           d="m 545.76863,682.5246 q -0.59275,2.25135 -2.15686,5.19414 3.37581,-2.7258 6.22276,-2.38482 2.89392,0.28601 7.07068,3.8558 l 2.52804,2.16066 q 0.17285,0.24284 0.61251,0.61861 3.95693,3.3819 6.11759,0.85386 2.20763,-2.583 -2.5187,-6.62249 -1.64872,-1.40912 -1.64872,-1.40912 l -1.42091,-1.11932 q 0,0 -0.7694,-0.65759 -1.59376,-1.36215 -2.01041,-2.09866 -0.55851,-1.23817 0.52182,-2.50218 1.69095,-1.97847 3.99916,-0.006 0.055,0.047 1.16209,1.08831 l 1.10713,1.04135 q 1.10714,1.04134 1.43688,1.32317 l 1.37394,1.17427 q 0.37671,0.22687 1.0362,0.79052 3.18752,2.7243 3.45108,6.08793 0.25557,3.26171 -2.46874,6.44923 -5.54256,6.48497 -12.08249,0.89544 l -1.64872,-1.40913 -1.82157,-1.65196 -1.20907,-1.03336 q -3.68214,-3.14705 -6.05748,-2.70454 -2.38334,0.34057 -6.141,4.73716 l -4.36829,5.11103 q -1.50307,1.75863 0.64027,3.5905 l 4.23171,3.61675 q 4.06685,3.47584 4.71036,3.83564 3.17061,1.85392 5.09641,-0.39933 0.65759,-0.7694 0.87647,-1.24804 0.63364,-1.07519 1.05637,-1.56981 1.50307,-1.75863 3.37162,-0.16162 1.97846,1.69095 -0.0413,4.05411 0,0 -0.81448,0.73042 l -2.92113,2.6389 q -1.67592,1.5158 -2.80322,2.83477 -1.40913,1.64872 -3.01317,4.08187 l -1.92486,2.91978 q -0.64162,0.97326 -0.59465,0.9183 -2.01975,2.36317 -3.99821,0.67221 -1.75863,-1.50306 -0.30254,-3.20674 0.23486,-0.27479 1.37813,-1.38991 0.68155,-0.46361 1.15126,-1.01319 2.39551,-2.80282 -1.72629,-6.32563 l -22.03789,-18.83531 q -4.1218,-3.52282 -6.51731,-0.71999 -0.37577,0.43966 -0.96243,1.45989 -0.64162,0.97326 -1.01739,1.41292 -0.61062,0.71444 -1.52797,0.78632 -0.97231,0.0249 -1.68676,-0.58571 -1.92351,-1.64398 0.14321,-4.06211 0.18788,-0.21983 0.71255,-0.72243 l 2.6703,-2.56797 q 1.04933,-1.0052 2.45846,-2.65392 1.45609,-1.70368 3.13107,-3.886 l 3.34995,-4.36464 q 1.67498,-2.18232 3.17805,-3.94096 10.33358,-12.09061 19.56642,-4.19951 5.44077,4.65011 3.84945,10.51782 z m -13.50554,14.80045 4.41526,-5.16599 q 3.94555,-4.61642 4.59935,-8.05193 0.80175,-4.16498 -2.93535,-7.359 -6.26513,-5.35467 -13.59258,3.21867 -3.89858,4.56146 -4.59326,6.8208 -0.70267,2.15742 1.28378,3.9503 l 1.71167,1.55802 6.32009,5.40165 q 0.93427,0.7985 1.49089,0.70361 0.50165,-0.14186 1.30015,-1.07613 z"
           style="font-style:normal;font-variant:normal;font-weight:normal;font-stretch:normal;font-size:72.29501343px;line-height:100%;font-family:'American Typewriter';-inkscape-font-specification:'American Typewriter, Normal';text-align:start;letter-spacing:4.37118483px;writing-mode:lr-tb;text-anchor:start;stroke-width:0.98437417;stroke-miterlimit:4;stroke-dasharray:none"
           id="path4292" />
        <path
           d="m 576.43355,658.03442 q -0.25271,-0.14058 -1.20037,-0.66776 -1.04598,-0.49915 -1.74093,-0.88575 l -26.21363,1.46673 q -2.56308,0.14601 -3.0547,0.28617 -1.47484,0.42047 -2.24804,1.81037 -0.42174,0.75813 -0.56944,1.17234 -0.10544,0.18953 -0.31631,0.5686 -0.18284,0.47738 -0.28828,0.66691 -1.61669,2.90616 -3.82789,1.67607 -2.27438,-1.26524 -0.86856,-3.79233 0.56232,-1.01084 1.65852,-2.38651 2.1924,-2.75134 3.66851,-5.40479 1.08951,-1.95849 2.69993,-6.19179 0.54852,-1.43216 1.07571,-2.37982 1.44096,-2.59027 3.65216,-1.36018 2.14803,1.19495 0.4259,4.29063 l -0.41463,0.59663 -0.87863,1.57943 -0.76609,1.2284 q -0.48492,0.72298 0.0837,1.03929 0.25271,0.14058 0.41421,0.1477 0.0983,-0.028 0.68115,-0.0347 l 21.80334,-0.5283 -10.97855,-18.93029 q -0.32969,-0.59705 -0.8351,-0.87822 -0.5686,-0.3163 -1.02549,0.505 l -0.0703,0.12635 -0.56944,1.17234 -0.72425,1.74805 q -0.47112,1.1443 -0.78743,1.7129 -1.44096,2.59026 -3.65217,1.36017 -2.2112,-1.23009 -0.80538,-3.75718 0.52718,-0.94766 1.45477,-2.16894 2.47356,-3.25677 3.91452,-5.84703 1.51126,-2.71663 2.8334,-6.28301 0.51338,-1.36898 1.00541,-2.25346 1.33553,-2.40074 3.54674,-1.17065 2.02167,1.12466 0.72129,3.46222 -0.52719,0.94766 -0.9347,1.38278 -0.68868,0.94055 -0.89956,1.31961 -0.91378,1.64261 0.0402,3.49694 l 0.92589,1.756 12.59812,23.30587 2.65345,1.4761 q 6.44408,3.58484 8.30468,3.95806 1.89574,0.31004 3.09068,-1.83799 0.28116,-0.50542 0.71714,-1.58654 0.40794,-1.17945 0.6891,-1.68487 1.08951,-1.9585 3.11118,-0.83384 2.27438,1.26523 0.69284,4.10821 -0.0351,0.0632 -0.21087,0.37906 -0.20376,0.21757 -0.3092,0.4071 l -2.37524,3.22873 q -1.34222,1.81791 -2.39658,3.71323 -1.12466,2.02167 -1.89116,3.9944 l -1.35018,3.46806 q -0.0703,0.12635 -0.1477,0.4142 -0.17572,0.31589 -0.24601,0.44225 -1.58155,2.84297 -3.79275,1.61288 -2.08485,-1.1598 -0.9602,-3.18147 0.28116,-0.50542 0.99788,-1.34764 0.68868,-0.94055 0.96984,-1.44596 1.47611,-2.65345 -1.55597,-5.08475 -0.53345,-0.37949 -5.52446,-3.15598 z"
           style="font-style:normal;font-variant:normal;font-weight:normal;font-stretch:normal;font-size:72.29501343px;line-height:100%;font-family:'American Typewriter';-inkscape-font-specification:'American Typewriter, Normal';text-align:start;letter-spacing:4.37118483px;writing-mode:lr-tb;text-anchor:start;stroke-width:0.98437417;stroke-miterlimit:4;stroke-dasharray:none"
           id="path4294" />
      </g>
      <path
         id="path4390"
         d="M 2.6073785,636.34349 A 362.82007,366.04629 15.846586 0 0 457.94094,872.67743 362.82007,366.04629 15.846586 0 0 695.10695,413.04913 362.82007,366.04629 15.846586 0 0 240.27901,175.73525 362.82007,366.04629 15.846586 0 0 2.1433402,634.85764"
         style="fill:none;fill-opacity:1;fill-rule:evenodd;stroke:#000000;stroke-width:6.50767183;stroke-linecap:butt;stroke-linejoin:miter;stroke-miterlimit:4;stroke-dasharray:none;stroke-opacity:1" />
      <g
         id="g4661">
        <path
           d="m 370,512.36218 a 15,10 0 0 1 -14.98403,10 15,10 0 0 1 -15.01594,-9.9787 15,10 0 0 1 14.95206,-10.02125 15,10 0 0 1 15.04777,9.95737"
           id="path4193"
           style="opacity:0;fill:none;fill-opacity:1;stroke:#000000;stroke-width:5;stroke-miterlimit:4;stroke-dasharray:none;stroke-opacity:1" />
        <path
           id="path4392"
           d="m 180.24691,742.48566 338.27161,1.23457"
           style="fill:none;fill-rule:evenodd;stroke:#000000;stroke-width:1px;stroke-linecap:butt;stroke-linejoin:miter;stroke-opacity:1" />
        <path
           id="path4394"
           d="m 224.69135,772.1153 248.14815,0"
           style="fill:none;fill-rule:evenodd;stroke:#000000;stroke-width:0.94727051px;stroke-linecap:butt;stroke-linejoin:miter;stroke-opacity:1" />
        <path
           id="path4400"
           d="m 156.79012,721.49801 385.18519,1.23457 0,0 -1.23457,0"
           style="fill:none;fill-rule:evenodd;stroke:#000000;stroke-width:1px;stroke-linecap:butt;stroke-linejoin:miter;stroke-opacity:1" />
        <path
           id="path4402"
           d="M 133.33333,695.57208 565.4321,694.33751"
           style="fill:none;fill-rule:evenodd;stroke:#000000;stroke-width:1px;stroke-linecap:butt;stroke-linejoin:miter;stroke-opacity:1" />
        <path
           id="path4406"
           d="m 109.87654,662.23874 477.77778,0"
           style="fill:none;fill-rule:evenodd;stroke:#000000;stroke-width:1.01317573px;stroke-linecap:butt;stroke-linejoin:miter;stroke-opacity:1" />
        <path
           d="m 399.93122,666.55969 a 50.5485,10.425046 0 0 1 -50.49468,10.42504 50.5485,10.425046 0 0 1 -50.6022,-10.40284 50.5485,10.425046 0 0 1 50.38693,-10.44719 50.5485,10.425046 0 0 1 50.70949,10.3806"
           id="path4411"
           style="opacity:0.98000004;fill:#000000;fill-opacity:1;stroke:#000000;stroke-width:1.12711883;stroke-miterlimit:4;stroke-dasharray:none;stroke-opacity:1" />
        <path
           id="path4413"
           d="m 103.7037,648.6585 488.88889,0 0,0 -1.23457,-1.23457"
           style="fill:none;fill-rule:evenodd;stroke:#000000;stroke-width:1px;stroke-linecap:butt;stroke-linejoin:miter;stroke-opacity:1" />
        <path
           id="path4415"
           d="m 109.53784,660.24094 c -1.37697,-4.41229 -2.50357,-8.51227 -2.50357,-9.11109 0,-0.59881 109.0903,-1.08874 242.42288,-1.08874 133.33259,0 242.42289,0.5571 242.42289,1.23801 0,0.6809 -1.21629,4.77571 -2.70286,9.0996 l -2.70284,7.86159 -96.30192,-0.54412 c -89.87823,-0.50782 -96.91911,-0.79957 -105.55469,-4.37372 -13.48314,-5.58047 -54.49747,-5.60899 -67.85374,-0.0472 -8.662,3.60702 -15.49305,3.88927 -106.98769,4.42052 l -97.7349,0.5675 -2.50356,-8.02236 z"
           style="opacity:0.98000004;fill:#000000;fill-opacity:1;stroke:#000000;stroke-width:1.56090415;stroke-miterlimit:4;stroke-dasharray:none;stroke-opacity:1" />
        <path
           style="opacity:0.98000004;fill:#000000;fill-opacity:1;stroke:#000000;stroke-width:0.98955548;stroke-miterlimit:4;stroke-dasharray:none;stroke-opacity:1"
           id="path4435"
           d="m 355.3404,665.66022 c -0.22676,-3.43441 -0.10618,-6.8784 -0.10155,-10.31694 0.15424,-3.29817 -0.10867,-6.55544 -0.51442,-9.82286 -0.26564,-3.01838 -1.22116,-5.91341 -1.90751,-8.85186 -0.73892,-4.30663 -1.41874,-8.6225 -2.39755,-12.88214 -0.98,-3.46824 -1.91901,-6.98296 -3.3395,-10.3029 -0.92721,-2.18155 -2.56359,-3.92179 -3.9456,-5.81468 -1.77818,-2.11652 -3.82464,-3.98814 -5.78707,-5.93002 -6.64347,-6.12467 -15.30427,-9.95943 -22.96796,-14.34915 -2.64582,-1.30284 -5.31139,-2.95306 -8.15,-3.77798 -2.74341,-1.02848 -5.57423,-1.80041 -8.36476,-2.70012 -3.02611,-0.73 -5.84749,-1.95206 -8.91093,-2.52609 -2.76944,-0.21909 -5.4205,-1.02742 -8.17627,-1.34625 -2.87725,-0.35115 -5.77449,-0.35348 -8.66777,-0.37436 -3.07517,-0.13324 -6.09146,-0.0142 -9.12944,0.44558 -2.89469,0.24238 -5.62439,1.06236 -8.26167,2.24522 -3.59525,1.22586 -6.8883,2.95583 -10.19397,4.79798 -2.84691,1.83479 -5.82134,3.50168 -8.36906,5.74976 -2.03002,2.30608 -4.66426,3.79468 -7.43213,5.03539 -2.91026,1.36978 -5.70339,2.99129 -8.69282,4.18892 -2.86113,1.56101 -5.70984,3.15139 -8.71677,4.41835 -3.21593,1.08982 -6.13756,2.8666 -9.30228,4.09317 -2.75872,1.67835 -5.65188,3.11859 -8.42393,4.77217 -2.92976,1.65166 -5.9208,3.11772 -9.01955,4.41722 -3.34746,1.74529 -6.82267,3.19533 -10.31417,4.6197 -4.06025,1.243 -8.04253,2.69093 -12.05122,4.0807 -4.07148,1.59528 -8.05399,3.3948 -12.12799,4.98448 -3.35417,1.41158 -6.69916,2.80647 -10.26131,3.58574 -2.60169,0.74712 -5.21851,1.36251 -7.79863,2.16836 -2.48242,0.84635 -4.85204,1.96988 -7.33471,2.81574 -2.87121,0.48361 -5.72119,1.06348 -8.61914,1.39876 -3.07031,0.22998 -6.1043,0.31269 -9.13942,0.83845 -2.32407,0.6048 -4.81493,0.29038 -7.101238,0.97219 0,0 15.017208,10.41276 15.017208,10.41276 l 0,0 c 2.31295,-0.30746 4.64327,-0.48763 6.93501,-0.95254 2.99821,-0.44306 6.03498,-0.39565 9.03549,-0.83435 3.01875,-0.40492 6.07453,-0.84035 9.01004,-1.64464 2.39464,-0.97871 4.75238,-2.05286 7.25175,-2.75131 2.51901,-0.79048 5.08965,-1.41019 7.62325,-2.15264 3.55681,-0.97206 6.93407,-2.42661 10.32897,-3.85226 4.0055,-1.68323 7.9916,-3.41537 12.06546,-4.92841 4.01983,-1.44661 8.08133,-2.74977 12.12489,-4.12814 3.51785,-1.41105 6.95478,-2.99296 10.38699,-4.59888 3.1568,-1.32489 6.16029,-2.96074 9.16038,-4.60505 2.74823,-1.55714 5.51738,-3.08348 8.30951,-4.55909 3.10201,-1.37337 6.09257,-2.99987 9.29734,-4.1389 2.97791,-1.35538 5.82429,-2.95594 8.77153,-4.37366 2.92183,-1.36309 5.74961,-2.92174 8.67773,-4.27321 2.84913,-1.42597 5.58318,-3.02214 7.72959,-5.42805 2.48285,-2.11507 5.34295,-3.74674 8.08226,-5.50175 3.24582,-1.85555 6.6263,-3.29217 10.14322,-4.5606 2.59077,-0.95796 5.25991,-1.56997 8.01095,-1.8602 2.97908,-0.35761 5.97045,-0.25428 8.96633,-0.23117 2.85705,0.0568 5.72018,0.16199 8.55039,0.58616 2.70001,0.48323 5.38814,1.01998 8.09687,1.44976 2.95097,0.75855 5.8129,1.84201 8.75804,2.62928 2.80212,0.91927 5.65175,1.69698 8.38998,2.80235 2.69582,1.20501 5.36383,2.48546 7.93631,3.93782 -26.96324,-15.63888 -13.42559,-8.46136 -7.90947,-3.92521 1.94884,1.88635 3.88426,3.78732 5.79238,5.71485 1.48345,1.61156 2.85075,3.66232 4.18447,5.40502 1.55396,3.21876 2.74313,6.56833 3.6346,10.03967 0.97932,4.24757 2.0127,8.49802 2.47411,12.84339 0.43905,2.95843 1.28509,5.7797 1.85427,8.69887 0.40782,3.20249 0.80704,6.37518 0.60373,9.61445 0.005,3.40395 0.12795,6.81393 -0.10155,10.21346 0,0 16.32831,8.31969 16.32831,8.31969 z" />
        <path
           id="path4441"
           d="m 297.89564,587.69536 56.43274,-79.18601 56.43277,74.07725"
           style="fill:none;fill-rule:evenodd;stroke:#000000;stroke-width:8.02279758;stroke-linecap:butt;stroke-linejoin:miter;stroke-miterlimit:4;stroke-dasharray:none;stroke-opacity:1" />
        <path
           id="path4150"
           d="M 86.658279,609.6925 A 276.10477,280.88001 7.8687181 0 0 433.04815,791.10116 276.10477,280.88001 7.8687181 0 0 613.46951,438.29295 276.10477,280.88001 7.8687181 0 0 267.46429,256.13211 276.10477,280.88001 7.8687181 0 0 86.305267,608.55197"
           style="fill:none;fill-opacity:1;fill-rule:evenodd;stroke:#000000;stroke-width:4.97289562;stroke-linecap:butt;stroke-linejoin:miter;stroke-miterlimit:4;stroke-dasharray:none;stroke-opacity:1" />
        <g
           id="text4183"
           style="font-style:normal;font-variant:normal;font-weight:normal;font-stretch:normal;font-size:83.68625641px;line-height:125%;font-family:'American Typewriter';-inkscape-font-specification:'American Typewriter';letter-spacing:2px;word-spacing:0.03px;fill:#000000;fill-opacity:1;stroke:none;stroke-width:1px;stroke-linecap:butt;stroke-linejoin:miter;stroke-opacity:1"
           transform="matrix(-1.0195866,-0.2618076,0.27823611,-1.0629194,558.9383,1192.8299)">
          <path
             id="path4238"
             style="font-size:83.68625641px"
             d="m 629.46475,554.42238 q 0.93344,-11.09106 9.48645,-16.92183 8.54599,-5.74738 22.22219,-4.59638 13.84298,1.16505 21.13434,8.3293 7.37476,7.17128 6.41325,18.5959 -0.91941,10.92428 -9.13183,16.69974 -8.21944,5.85884 -21.3119,4.75696 -14.17654,-1.19311 -21.96124,-8.48287 -7.79171,-7.20637 -6.85126,-18.38082 z m 53.2731,4.6515 q 0.67376,-8.00558 -5.12524,-12.94468 -5.79899,-4.93911 -16.97345,-5.87956 -11.34123,-0.9545 -17.96756,2.93888 -6.54294,3.90039 -7.20968,11.82257 -0.65271,7.75541 5.38944,12.79896 6.11853,5.13396 17.20959,6.06739 11.17445,0.94046 17.54359,-2.89058 6.45253,-3.82401 7.13331,-11.91298 z" />
          <path
             id="path4240"
             style="font-size:83.68625641px"
             d="m 635.73381,599.02713 32.1972,9.46002 q 5.94163,1.74574 7.14478,-2.34916 0.18873,-0.64234 0.33483,-1.73332 0.20735,-1.59633 0.39608,-2.23867 0.75491,-2.56935 3.40456,-1.79084 2.81023,0.82568 1.77222,4.35854 -0.16514,0.56205 -0.43416,1.1808 l -1.63772,3.79277 q -0.80706,1.85624 -1.65634,4.74677 -0.58977,2.0073 -1.17459,4.88831 -1.37242,6.7491 -2.36324,10.12138 -1.50983,5.1387 -3.39795,8.59624 -2.6811,4.96901 -7.408,6.80745 -4.75049,1.91874 -10.21036,0.31454 -7.54748,-2.21756 -10.02867,-8.61611 -2.50479,-6.31826 0.37332,-16.11392 l 1.67497,-5.70075 q 0.77851,-2.64965 1.00035,-3.10781 l 0.0472,-0.16058 q 0.37746,-1.28468 0.0137,-1.82769 -0.3071,-0.43912 -1.91294,-0.91094 l -1.60585,-0.47183 q -10.19712,-2.99606 -12.53015,-3.07098 -2.35662,0.005 -3.2059,2.8959 -0.2595,0.88322 -0.25453,1.75692 -0.35842,1.81361 -0.47638,2.21507 -0.73132,2.48906 -3.30068,1.73415 -2.89052,-0.84928 -1.85251,-4.38214 0,0 0.49086,-1.07691 l 1.7416,-3.84948 q 0.73629,-1.61536 1.72712,-4.98764 0.82568,-2.81023 1.10381,-4.64743 l 0.72594,-4.84568 q 0.0472,-0.16059 0.0613,-0.50535 0.0944,-0.32117 0.16514,-0.56205 1.0616,-3.61315 3.87183,-2.78746 1.12409,0.33028 1.6344,1.26523 0.5906,0.95854 0.28392,2.00234 -0.25951,0.88321 -0.87784,2.09711 -0.32572,0.51487 -0.656,1.63896 -1.20314,4.09491 4.81878,5.86424 z m 34.22561,17.99336 q -0.63778,-0.79796 -4.25093,-1.85956 l -11.88326,-3.49148 q -2.16789,-0.63696 -3.38552,2.31978 0.0708,-0.24087 -1.36829,4.65696 -1.67496,5.70075 -1.90053,9.73399 -0.41347,7.64142 7.29459,9.90617 10.19712,2.99606 14.01888,-10.01128 2.83093,-9.63508 1.47506,-11.25458 z" />
          <path
             id="path4242"
             style="font-size:83.68625641px"
             d="m 646.34383,669.25841 q 5.45652,2.92866 7.47492,-0.83191 0.55407,-1.03232 0.68363,-1.62763 0.41201,-1.29851 0.84735,-2.10961 0.5145,-0.95858 1.53431,-1.26602 1.09356,-0.26787 2.12587,0.2862 2.58078,1.38518 0.91857,4.48212 -0.0396,0.0737 -0.66738,1.06647 -6.67384,10.66473 -6.27807,9.92737 -0.39577,0.73736 -0.39577,0.73736 l -9.02177,18.04757 q -0.27703,0.51616 -1.83676,3.95304 -0.55949,1.21936 -1.07398,2.17794 -2.05798,3.8343 -5.44986,2.01378 -0.5899,-0.31661 -3.60227,-2.31334 -2.24084,-1.48766 -4.23173,-2.55622 -2.58078,-1.38518 -3.69225,-1.79178 -2.29667,-0.85277 -3.32898,-1.40684 -2.80199,-1.5039 -1.37724,-4.15842 1.42475,-2.65452 5.33279,-0.55697 l 3.83431,2.05798 q 6.19388,3.32442 8.6851,1.33728 1.8401,-1.48181 6.11435,-9.44537 2.80993,-5.2353 3.10322,-6.3126 0.89068,-3.60602 -2.72242,-5.54527 l -3.31814,-1.78094 q -0.5899,-0.31661 -1.62221,-0.87068 -0.99274,-0.62781 -1.43516,-0.86527 l -0.95857,-0.51449 q -2.94947,-1.58306 -4.10427,-0.49326 -0.4245,0.43701 -1.0973,1.69053 l -1.62264,3.0232 q -2.49332,4.64541 0.67736,6.3472 0.88484,0.47492 2.40457,1.00566 1.51972,0.53074 2.62577,1.12439 2.94947,1.58306 1.52471,4.23758 -1.42475,2.65452 -4.59542,0.95273 -0.5899,-0.31661 -4.29464,-2.9699 -3.15443,-2.26294 -5.73521,-3.64811 -1.47473,-0.79153 -5.39361,-2.51499 -0.62947,-0.24287 -2.77866,-1.01649 -1.74094,-0.64947 -2.69952,-1.16396 -2.65452,-1.42476 -1.22976,-4.07928 1.38517,-2.58078 4.48211,-0.91857 0.81111,0.43534 2.28042,1.41392 1.42974,1.05232 2.24085,1.48766 3.17067,1.70179 5.42653,-2.5012 l 1.78094,-3.31815 q 1.14772,-2.13836 0.68739,-3.05028 -0.49991,-0.83819 -2.93322,-2.14421 l -4.57167,-2.45374 q -1.17979,-0.63323 -3.21026,-1.62805 -2.47288,-1.23229 -3.28398,-1.66763 -2.98905,-1.50932 -4.32006,-0.79904 -0.9515,0.53407 -2.57413,3.55727 l -5.3824,10.02819 q -2.33501,4.35046 -1.95217,6.64546 0.45658,2.33459 3.99594,4.23426 1.10605,0.59364 3.32356,1.59389 2.25168,1.11356 3.35773,1.7072 3.31815,1.78094 1.89339,4.43546 -1.5039,2.80199 -4.89579,0.98148 -1.32726,-0.71238 -3.97636,-2.32418 -2.6491,-1.6118 -3.97636,-2.32418 -1.03232,-0.55407 -3.13652,-1.58847 -2.07004,-0.9211 -3.10235,-1.47517 -3.46563,-1.86009 -1.64511,-5.25198 0.43534,-0.8111 1.53265,-2.50162 0.54865,-0.84527 1.8151,-3.20484 -0.27704,0.51616 3.23444,-5.67231 3.51147,-6.18846 5.96521,-10.76013 3.72019,-6.93125 6.83965,-13.805 0.1583,-0.29495 0.28245,-0.70321 0.19788,-0.36868 0.23746,-0.44242 1.66221,-3.09694 4.31673,-1.67219 2.35957,1.26645 1.1327,3.55229 -0.19788,0.36868 -1.21604,1.91173 -0.65655,0.69238 -1.05231,1.42974 -2.0184,3.76057 3.51185,6.72881 l 29.56839,15.87016 z" />
          <path
             id="path4244"
             style="font-size:83.68625641px"
             d="m 608.41895,742.02913 -50.04222,-13.81935 25.40067,22.18601 q 4.91626,4.29406 5.47555,4.67145 3.77298,2.29545 6.03011,-0.28874 0.44042,-0.50423 1.13217,-1.67785 0.75477,-1.11857 1.19519,-1.6228 0.71568,-0.81937 1.83346,-0.95419 1.12576,-0.0167 1.94514,0.69893 2.26904,1.98188 -0.20831,4.81818 -0.49547,0.56726 -0.7787,0.76433 l -2.85552,2.50599 q -1.90368,1.67066 -3.33504,3.30941 -1.43135,1.63876 -3.42042,4.67932 -0.69973,1.05554 -1.61168,2.48127 -0.11011,0.12606 -0.32234,0.49626 -0.22021,0.25211 -0.38536,0.4412 -2.36724,2.71025 -4.57326,0.78342 -2.14298,-1.87177 0.0591,-4.39293 0.38537,-0.4412 0.6686,-0.63827 l 0.55052,-0.63029 q 1.65157,-1.89087 1.32766,-3.17381 -0.32391,-1.28293 -2.98708,-3.83129 l -3.48254,-3.26403 -6.31886,-5.74137 -16.82873,-14.69892 q -4.349,-3.7986 -5.23298,-6.34852 -0.93903,-2.4869 1.15295,-4.882 2.69756,-3.08842 8.98136,-1.37775 l 48.77445,13.48982 -29.30848,-25.59924 q -4.72717,-4.12891 -7.53483,-0.91444 -0.44042,0.50424 -1.19519,1.6228 -0.69175,1.17362 -1.13217,1.67786 -1.76166,2.01692 -3.84162,0.2002 -2.20601,-1.92682 0.27133,-4.76313 0.11011,-0.12605 0.33031,-0.37817 0.33829,-0.26009 0.4484,-0.38615 l 2.63531,-2.25388 q 2.18692,-1.86772 3.83848,-3.75859 1.43136,-1.63875 3.37335,-4.4982 l 2.31938,-3.41874 q 0.1101,-0.12605 0.32234,-0.49625 0.27526,-0.31514 0.44041,-0.50423 2.36724,-2.71025 4.57326,-0.78342 1.9539,1.70661 0.19223,3.72354 -0.27526,0.31515 -1.61247,1.59168 -0.79466,0.52816 -1.34518,1.15845 -2.80766,3.21448 1.91952,7.34339 l 4.41202,3.85365 5.4915,4.90761 5.42049,4.73449 10.01364,8.63521 q 4.72717,4.12891 7.58988,0.8514 0.38536,-0.4412 0.97498,-1.37068 0.85691,-1.36271 1.35238,-1.92997 1.76167,-2.01693 3.84162,-0.20021 2.20602,1.92682 -0.16123,4.63707 -0.33031,0.37817 -0.94386,0.95341 -3.06775,2.87619 -4.55416,4.57797 -0.82578,0.94544 -2.28826,3.00146 -1.46247,2.05603 -2.28826,3.00146 -1.70661,1.9539 -3.58074,1.4281 l -2.11827,-0.62793 z" />
          <path
             id="path4246"
             style="font-size:83.68625641px"
             d="m 525.11013,802.65015 q -4.99602,-6.9212 0.81797,-15.45286 -3.48666,1.17507 -6.10243,1.41187 -7.79833,0.77824 -12.40251,-5.60012 -4.50621,-6.24266 -2.38244,-13.4523 2.17275,-7.14179 10.24749,-12.97047 2.91776,-2.10617 7.64109,-4.99961 4.72333,-2.89344 6.82684,-4.41184 1.83208,-1.32248 3.31366,-2.70157 l 2.89529,-2.70922 q 0.13571,-0.098 0.42601,-0.41072 0.33927,-0.2449 0.47498,-0.34286 2.96675,-2.03831 4.68107,0.33661 1.56737,2.17136 -0.53613,3.68976 -0.54284,0.39184 -1.97902,1.11891 -0.98008,0.50103 -1.52292,0.89288 -3.4606,2.49801 0.16396,7.51927 l 19.69019,27.27769 q 3.67354,5.08912 7.13414,2.59112 0.6107,-0.44083 1.32699,-1.16431 1.07445,-1.08521 1.68515,-1.52604 2.1035,-1.51839 3.67088,0.65296 1.71432,2.37493 -1.40701,4.62803 l -0.88211,0.63675 -3.66776,1.92506 q -1.5719,0.82503 -4.01467,2.58833 -2.57849,1.86126 -7.03446,5.69703 -2.99326,2.57351 -6.65742,5.21846 -6.85335,4.94704 -12.75939,4.77218 -5.92492,-0.058 -9.64744,-5.21499 z m 23.88228,-21.67732 q -2.59597,-3.59631 -3.84341,-4.0376 -1.26632,-0.32445 -4.18408,1.78171 l -3.79988,2.74291 q -12.01033,8.66956 -6.37756,16.47288 5.14296,7.12477 15.04978,-0.0264 6.92121,-4.99602 7.91298,-7.05366 0.92391,-2.00867 -1.72104,-5.67284 l -3.03679,-4.20701 z m -9.94306,-13.77455 -5.43684,-7.5319 q -3.18374,-4.41057 -5.41125,-4.35082 -2.22752,0.0598 -8.8773,4.85984 -12.68888,9.15937 -5.8316,18.65906 6.31849,8.75329 18.53238,-0.0632 l 5.63196,-4.06539 q 3.66417,-2.64495 3.03148,-4.66532 -0.31635,-1.01018 -1.63883,-2.84226 z" />
          <path
             id="path4248"
             style="font-size:83.68625641px"
             d="m 466.68497,782.4103 q 10.19141,-4.47415 19.39779,0.25813 9.12976,4.76592 14.64675,17.33278 5.58427,12.72011 2.76953,22.547 -2.78111,9.90352 -13.27903,14.51223 -10.03817,4.40686 -19.03336,-0.0525 -9.07182,-4.42576 -14.35333,-16.45623 -5.71883,-13.02663 -3.0293,-23.34692 2.6129,-10.28666 12.88095,-14.79444 z m 21.34282,49.03206 q 7.35622,-3.22946 8.92808,-10.6828 1.57187,-7.45335 -2.93592,-17.72139 -4.57506,-10.4213 -11.15932,-14.38541 -6.55061,-3.88748 -13.8302,-0.69166 -7.12633,3.12853 -8.6739,10.8454 -1.59056,7.82713 2.88359,18.01855 4.50778,10.26804 10.91449,14.03591 6.44035,3.8445 13.87318,0.5814 z" />
          <path
             id="path4250"
             style="font-size:83.68625641px"
             d="m 431.89995,841.4914 -0.89606,-5.28308 -1.0136,-6.71074 -2.55092,-12.6327 q -1.15951,-5.74214 -2.92003,-8.11865 -1.84255,-2.35994 -5.66802,-3.12422 -3.56282,-0.73195 -7.0081,-0.0362 -4.51168,0.91104 -7.36302,3.2797 -2.85134,2.36865 -3.17392,5.42193 -0.38805,3.15187 0.44097,7.68011 l 4.09299,21.11498 q 1.2589,6.23432 1.5886,7.0215 1.58306,4.03448 5.02835,3.33877 0.57421,-0.11595 1.60748,-0.49535 1.50889,-0.56081 2.16513,-0.69333 1.0664,-0.21534 2.05235,0.43932 0.90392,0.67123 1.11925,1.73763 0.59632,2.9531 -3.01302,3.68193 -0.57421,0.11595 -1.16499,0.14987 l -4.97232,0.32106 q -1.85437,0.11833 -4.15122,0.58213 -2.21483,0.44724 -3.64168,0.99149 l -3.41136,1.28648 q -1.42686,0.54426 -1.91904,0.64364 -3.44529,0.69571 -4.00848,-2.09333 -0.56319,-2.78904 2.80007,-3.46818 l 0.90233,-0.18221 q 0.26266,0.0323 0.83687,-0.0836 2.46092,-0.49694 2.5382,-3.0738 0.0773,-2.57687 -1.97671,-12.74866 l -2.89877,-14.35534 q -1.07669,-5.33199 -1.22894,-7.77713 -0.17197,-4.23404 1.34794,-7.69985 3.48072,-8.13052 15.21109,-10.49923 14.43738,-2.91534 20.52584,5.67339 1.89225,2.60603 3.11801,8.67629 0.59632,2.9531 1.50974,8.74493 0.92998,5.87387 1.5263,8.82697 l 0.87792,4.34761 q 1.2092,5.98823 1.44031,6.70994 1.48526,4.39573 4.11023,3.86567 0.16407,-0.0331 0.57422,-0.11595 0.39359,-0.16485 0.70514,-0.31314 0.32813,-0.0663 1.0664,-0.21534 3.44528,-0.6957 4.00847,2.09333 0.56319,2.78904 -2.55397,3.41849 -1.31248,0.26503 -2.83873,0.3171 -4.15201,0.15541 -7.59729,0.85112 -3.52732,0.71227 -7.97195,2.37815 -0.95123,0.36283 -2.09966,0.59474 -3.36325,0.67914 -3.92644,-2.1099 -0.56319,-2.78904 2.30787,-3.36879 0.65625,-0.13252 2.00187,-0.23349 1.36218,-0.0189 2.01842,-0.15145 2.62498,-0.53007 2.96413,-3.50131 0.16168,-1.31328 -0.51825,-5.10325 z" />
          <path
             id="path4252"
             style="font-size:83.68625641px"
             d="m 353.62015,859.83757 -21.21075,-47.38463 -0.93163,33.71269 q -0.18031,6.52504 -0.11515,7.19659 0.63267,4.37083 4.0625,4.46561 0.66924,0.0185 2.01464,-0.19548 1.34309,-0.13032 2.01233,-0.11183 1.0875,0.03 1.90324,0.80606 0.72977,0.85735 0.69972,1.94486 -0.0832,3.01155 -3.84767,2.90752 -0.75289,-0.0208 -1.08519,-0.1137 l -3.75057,-0.60596 q -2.50039,-0.40397 -4.6754,-0.46407 -2.17501,-0.0601 -5.78602,0.34241 -1.25944,0.13264 -2.93946,0.33736 -0.16731,-0.005 -0.58789,0.0675 -0.33462,-0.009 -0.58558,-0.0162 -3.59714,-0.0994 -3.51623,-3.0273 0.0786,-2.84425 3.42478,-2.75178 0.58558,0.0162 0.91788,0.10908 l 0.83655,0.0231 q 2.50963,0.0693 3.29257,-0.99735 0.78294,-1.0667 1.05196,-4.74286 l 0.29908,-4.76368 0.40311,-8.52811 0.61723,-22.33571 q 0.15951,-5.77215 1.56271,-8.07748 1.31954,-2.30764 4.49841,-2.2198 4.09906,0.11328 6.78148,6.04768 l 20.65754,46.19728 1.07496,-38.89926 q 0.17338,-6.27407 -4.09299,-6.39197 -0.66924,-0.0185 -2.01233,0.11182 -1.34541,0.21398 -2.01464,0.19548 -2.67694,-0.074 -2.60065,-2.83456 0.0809,-2.9279 3.84535,-2.82388 0.16731,0.005 0.50193,0.0139 0.41596,0.0952 0.58327,0.0998 l 3.41596,0.59671 q 2.83268,0.49687 5.34231,0.56622 2.17502,0.0601 5.6164,-0.26338 l 4.11293,-0.38866 q 0.16731,0.005 0.5879,-0.0675 0.41827,0.0116 0.66923,0.0185 3.59714,0.0994 3.51623,3.0273 -0.0717,2.59329 -2.74861,2.51931 -0.41827,-0.0116 -2.25404,-0.22972 -0.91326,-0.2764 -1.74981,-0.29951 -4.26637,-0.1179 -4.43975,6.15617 l -0.16182,5.8558 -0.28709,7.35927 -0.1988,7.19427 -0.2816,13.2197 q -0.17339,6.27407 4.17664,6.39428 0.58558,0.0162 1.67771,-0.12107 1.59637,-0.20704 2.34926,-0.18624 2.67693,0.074 2.60065,2.83457 -0.0809,2.9279 -3.67805,2.8285 -0.50193,-0.0139 -1.33616,-0.12064 -4.17115,-0.53386 -6.42982,-0.59628 -1.25482,-0.0347 -3.77138,0.14694 -2.51657,0.18161 -3.77138,0.14693 -2.59328,-0.0717 -3.38128,-1.85152 l -0.86472,-2.03313 z" />
          <path
             id="path4254"
             style="font-size:83.68625641px"
             d="m 290.34824,845.99163 q -1.58879,6.07205 2.5402,7.15243 0.72865,0.19066 1.74254,0.28294 1.52085,0.13843 2.24949,0.32909 2.50978,0.6567 1.8319,3.24744 -0.74144,2.83363 -4.38467,1.88035 -0.4048,-0.10592 -1.03131,-0.35635 l -4.14262,-1.68948 q -2.34409,-0.95936 -5.09675,-1.67961 -2.2669,-0.59315 -4.59735,-0.94342 l -5.41073,-0.81023 q -1.58062,-0.24057 -4.0904,-0.89728 -7.36742,-1.92773 -11.75524,-5.32493 -5.7566,-4.44738 -7.70134,-12.22254 -2.0257,-7.79634 0.32571,-16.78297 2.07603,-7.93415 6.7451,-13.54624 4.6479,-5.53112 10.61318,-7.1709 7.18725,-2.01206 16.01197,0.29699 1.78113,0.46604 3.60086,1.11519 l 5.45918,1.94746 q 2.77007,0.98432 5.84658,1.78931 2.6717,0.69907 4.43543,0.90105 l 4.0344,0.4501 q 0.16192,0.0424 0.5879,0.0673 0.40481,0.10592 0.64769,0.16947 3.48131,0.91091 2.73987,3.74453 -0.29657,1.13345 -1.21588,1.67144 -0.94048,0.61896 -1.99297,0.34356 -0.89057,-0.23302 -2.12239,-0.81484 -0.52435,-0.31021 -1.6578,-0.60679 -4.129,-1.08038 -5.71779,4.99167 l -8.49476,32.46523 z m -7.01253,-0.96984 8.9608,-34.24637 q 0.97446,-3.72419 -2.45693,-5.48707 -1.12967,-0.6416 -6.71596,-2.10329 -9.71528,-2.54208 -15.46411,1.57643 -6.91479,4.93798 -9.62634,15.30095 -2.11839,8.09606 -0.34166,14.52971 1.67459,6.49342 6.8372,9.57432 3.28688,1.98459 8.30644,3.29799 6.3959,1.67353 8.04384,1.3262 1.56699,-0.36852 2.45672,-3.76887 z" />
          <path
             id="path4256"
             style="font-size:83.68625641px"
             d="m 243.55736,782.5825 q 1.99419,0.87034 2.77224,2.85348 0.74457,2.05984 -0.12578,4.05403 -0.87034,1.99419 -2.85348,2.77223 -2.01662,0.85475 -4.0108,-0.0156 -1.99419,-0.87035 -2.73876,-2.93019 -0.77805,-1.98314 0.0923,-3.97733 0.87035,-1.99419 2.88696,-2.84893 1.98314,-0.77805 3.97733,0.0923 z" />
          <path
             id="path4258"
             style="font-size:83.68625641px"
             d="m 208.02184,763.4602 q 9.46088,5.863 10.77742,16.13035 1.24541,10.22327 -5.98416,21.88932 -7.31773,11.80831 -17.00999,15.05649 -9.73634,3.31932 -19.48175,-2.72002 -9.31861,-5.77483 -10.74035,-15.71357 -1.49287,-9.98281 5.42811,-21.15091 7.49406,-12.09285 17.52195,-15.72376 9.95676,-3.67499 19.48877,2.2321 z m -28.31112,45.36672 q 6.8289,4.23194 13.86114,1.30437 7.03225,-2.92756 12.93933,-12.45957 5.99525,-9.67428 5.53133,-17.34574 -0.508,-7.60033 -7.26577,-11.78819 -6.6155,-4.09969 -13.85113,-1.00281 -7.35084,3.12393 -13.21384,12.58481 -5.90709,9.53201 -5.38205,16.94599 0.48095,7.48511 7.38099,11.76114 z" />
          <path
             id="path4260"
             style="font-size:83.68625641px"
             d="m 128.13878,740.70651 q 2.56321,0.83216 5.86206,2.83211 -2.9297,-4.07959 -2.34962,-7.34759 0.51964,-3.32588 4.91821,-7.9198 l 2.6623,-2.78054 q 0.29195,-0.18391 0.75495,-0.66748 4.16707,-4.35214 1.38654,-7.01443 -2.84098,-2.72017 -7.81831,2.47822 -1.73628,1.81339 -1.73628,1.81339 l -1.38645,1.56904 q 0,0 -0.81027,0.84625 -1.6784,1.75294 -2.55682,2.18635 -1.46746,0.56458 -2.85773,-0.76657 -2.17607,-2.08353 0.25472,-4.62228 0.0579,-0.0604 1.33372,-1.27194 l 1.27584,-1.2115 q 1.27584,-1.2115 1.6231,-1.57418 l 1.44689,-1.51116 q 0.28681,-0.42055 0.98132,-1.14591 3.35681,-3.50589 7.26145,-3.59071 3.78631,-0.0823 7.2922,3.27455 7.13267,6.82936 0.24544,14.02248 l -1.73628,1.81339 -2.02823,1.9973 -1.27327,1.32982 q -3.87769,4.04991 -3.52148,6.82406 0.23789,2.77671 5.0736,7.40679 l 5.62152,5.38246 q 1.93428,1.85203 4.19144,-0.50538 l 4.45645,-4.65437 q 4.28282,-4.47303 4.74068,-5.19325 2.34978,-3.5432 -0.12852,-5.91611 -0.84625,-0.81027 -1.38512,-1.0945 -1.20122,-0.80256 -1.74524,-1.32344 -1.93428,-1.85203 0.0335,-3.90721 2.08353,-2.17607 4.68273,0.3126 0,0 0.79094,0.98903 l 2.85898,3.54843 q 1.64233,2.03594 3.09304,3.42496 1.81339,1.73628 4.52063,3.74908 l 3.24868,2.41537 q 1.0829,0.80512 1.02245,0.74725 2.59919,2.48866 0.51566,4.66473 -1.85203,1.93429 -3.72587,0.14013 -0.30223,-0.28938 -1.5163,-1.68354 -0.49128,-0.81798 -1.09574,-1.39674 -3.08277,-2.95167 -7.42347,1.58181 l -23.20825,24.239 q -4.34069,4.53348 -1.25793,7.48515 0.48357,0.46301 1.62434,1.20768 1.0829,0.80513 1.56647,1.26813 0.7858,0.75239 0.80894,1.81729 -0.0348,1.12535 -0.78713,1.91115 -2.02566,2.11563 -4.6853,-0.43092 -0.24179,-0.2315 -0.78838,-0.87071 l -2.79338,-3.2539 q -1.09318,-1.27841 -2.90657,-3.01469 -1.87384,-1.79415 -4.28655,-3.87255 l -4.82543,-4.15678 q -2.41271,-2.0784 -4.347,-3.93043 -13.2982,-12.7327 -3.57504,-22.88769 5.72971,-5.9842 12.40717,-3.7617 z m 16.22277,16.57566 -5.68196,-5.44034 q -5.0775,-4.86158 -9.00527,-5.84166 -4.76117,-1.19872 -8.69673,2.91163 -6.59786,6.89089 2.83178,15.91953 5.01705,4.80371 7.58283,5.75418 2.44745,0.95305 4.64931,-1.22559 l 1.91247,-1.87641 6.65574,-6.95133 q 0.98389,-1.02759 0.91059,-1.67708 -0.13117,-0.58904 -1.15876,-1.57293 z" />
          <path
             id="path4262"
             style="font-size:83.68625641px"
             d="m 72.976232,714.40738 q -4.65647,-6.9535 -3.213085,-16.07819 -0.880361,0.79097 -1.019431,0.8841 -1.297571,1.07037 -1.436641,1.1635 -2.294655,1.53663 -3.83129,-0.75802 -1.676329,-2.50326 1.313676,-4.50555 0.97349,-0.6519 1.5068,-0.90832 l 3.663634,-1.74836 q 1.599929,-0.76925 3.268769,-1.88681 1.321166,-0.88473 5.446078,-4.04988 0,0 0.625815,-0.41908 3.129076,-2.09541 4.851969,0.47739 1.629765,2.43372 -1.777451,4.71539 l -2.08605,1.39694 q -4.797916,3.21297 -5.43734,8.27416 -0.68599,4.99167 2.899492,10.34586 4.516776,6.7449 12.292961,7.07697 7.776185,0.33208 16.885272,-5.7679 9.66537,-6.47249 12.48147,-13.9985 2.76955,-7.59554 -1.88692,-14.54904 -3.58548,-5.3542 -8.67028,-6.17926 -5.08479,-0.82506 -10.856197,3.03981 -2.36419,1.5832 -2.709369,3.02296 -0.461279,1.41679 0.889098,3.43331 0.372517,0.55628 1.140523,1.55274 0.768005,0.99646 1.140523,1.55274 2.235102,3.33768 -0.129085,4.92088 -2.433725,1.62977 -4.342878,-1.22117 -0.605341,-0.90395 -1.211306,-2.10964 -2.377296,-4.75323 -4.146755,-7.39556 -2.28167,-3.40721 -5.468544,-6.81256 -0.697846,-0.74129 -1.396317,-1.78431 -1.862588,-2.7814 0.432067,-4.31804 0.973491,-0.6519 2.181053,-0.35267 1.160997,0.22971 1.812902,1.2032 0.558777,0.83442 0.76863,1.29819 0.09313,0.13907 0.256418,0.53331 0.232823,0.34768 0.372518,0.55628 2.048846,3.05954 8.863278,-1.5038 l 5.562801,-3.72517 q 1.80791,-1.21069 3.17502,-2.32762 1.3671,-1.11692 2.20152,-1.6757 2.85094,-1.90915 4.52727,0.59411 1.62976,2.43372 -0.80396,4.06349 0,0 -1.76197,0.97848 -0.67238,0.34955 -2.24872,1.30444 3.22657,0.1558 4.66634,0.50097 6.31657,1.61167 11.11273,8.77378 6.00685,8.97001 3.0101,18.93349 -2.99675,9.96348 -13.77468,17.18101 -11.54281,7.72974 -22.151952,6.77684 -10.655707,-1.02243 -16.988506,-10.47919 z" />
        </g>
        <path
           style="opacity:0.98000004;fill:#000000;fill-opacity:1;fill-rule:evenodd;stroke:#000000;stroke-width:0.35691154;stroke-linecap:butt;stroke-linejoin:miter;stroke-miterlimit:4;stroke-dasharray:none;stroke-opacity:1"
           id="path4206"
           transform="matrix(0.99992175,0.01250979,0,1,0,0)"
           d="M 50.883102,523.28076 A 19.977362,19.996742 0 0 1 30.927036,543.27749 19.977362,19.996742 0 0 1 10.928424,523.32339 19.977362,19.996742 0 0 1 30.841855,503.28412 19.977362,19.996742 0 0 1 50.882921,523.1955" />
        <path
           d="m 685.50068,515.34186 a 19.977362,19.996742 0 0 1 -19.95607,19.99673 19.977362,19.996742 0 0 1 -19.99861,-19.9541 19.977362,19.996742 0 0 1 19.91343,-20.03927 19.977362,19.996742 0 0 1 20.04107,19.91137"
           transform="matrix(0.99992175,0.01250979,0,1,0,0)"
           id="path4322"
           style="opacity:0.98000004;fill:#000000;fill-opacity:1;fill-rule:evenodd;stroke:#000000;stroke-width:0.35691154;stroke-linecap:butt;stroke-linejoin:miter;stroke-miterlimit:4;stroke-dasharray:none;stroke-opacity:1" />
        <path
           id="path4398"
           d="m 211.59304,763.60635 c -6.566,-3.96225 -15.73267,-9.92348 -20.37037,-13.24719 l -8.43218,-6.0431 76.54321,-0.28607 c 42.09876,-0.15734 116.51964,0.12044 165.37971,0.61728 l 88.83652,0.90336 -11.05874,7.52483 c -6.0823,4.13865 -15.04454,9.8331 -19.9161,12.65432 l -8.85738,5.12949 -125.09324,-0.0244 -125.09324,-0.0244 -11.93819,-7.20408 z"
           style="opacity:0.98000004;fill:#000000;fill-opacity:1;stroke:#000000;stroke-width:1.22167349;stroke-miterlimit:4;stroke-dasharray:none;stroke-opacity:1" />
        <path
           id="path4404"
           d="m 225.32616,720.2573 -69.81,-0.6326 -9.51098,-10.45954 c -5.23105,-5.75275 -9.51099,-10.82349 -9.51099,-11.26831 0,-0.96 307.46857,-2.68479 378.06223,-2.12081 l 49.04991,0.39187 -11.14768,12.65432 -11.14767,12.65432 -123.08741,-0.29333 c -67.69807,-0.16133 -154.50191,-0.578 -192.89741,-0.92592 z"
           style="opacity:0.98000004;fill:#000000;fill-opacity:1;stroke:#000000;stroke-width:1.22167349;stroke-miterlimit:4;stroke-dasharray:none;stroke-opacity:1" />
        <path
           d="m 347.3914,664.42565 c 0.22676,-3.43441 0.10618,-6.8784 0.10155,-10.31694 -0.15424,-3.29817 0.10867,-6.55544 0.51442,-9.82286 0.26564,-3.01838 1.22116,-5.91341 1.90751,-8.85186 0.73892,-4.30663 1.41874,-8.6225 2.39755,-12.88214 0.98,-3.46824 1.91901,-6.98296 3.3395,-10.3029 0.92721,-2.18155 2.56359,-3.92179 3.9456,-5.81468 1.77818,-2.11652 3.82464,-3.98814 5.78707,-5.93002 6.64347,-6.12467 15.30427,-9.95943 22.96796,-14.34915 2.64582,-1.30284 5.31139,-2.95306 8.15,-3.77798 2.74341,-1.02848 5.57423,-1.80041 8.36476,-2.70012 3.02611,-0.73 5.84749,-1.95206 8.91093,-2.52609 2.76944,-0.21909 5.4205,-1.02742 8.17627,-1.34625 2.87725,-0.35115 5.77449,-0.35348 8.66777,-0.37436 3.07517,-0.13324 6.09146,-0.0142 9.12944,0.44558 2.89469,0.24238 5.62439,1.06236 8.26167,2.24522 3.59525,1.22586 6.8883,2.95583 10.19397,4.79798 2.84691,1.83479 5.82134,3.50168 8.36906,5.74976 2.03002,2.30608 4.66426,3.79468 7.43213,5.03539 2.91026,1.36978 5.70339,2.99129 8.69282,4.18892 2.86113,1.56101 5.70984,3.15139 8.71677,4.41835 3.21593,1.08982 6.13756,2.8666 9.30228,4.09317 2.75872,1.67835 5.65188,3.11859 8.42393,4.77217 2.92976,1.65166 5.9208,3.11772 9.01955,4.41722 3.34746,1.74529 6.82267,3.19533 10.31417,4.6197 4.06025,1.243 8.04253,2.69093 12.05122,4.0807 4.07148,1.59528 8.05399,3.3948 12.12799,4.98448 3.35417,1.41158 6.69916,2.80647 10.26131,3.58574 2.60169,0.74712 5.21851,1.36251 7.79863,2.16836 2.48242,0.84635 4.85204,1.96988 7.33471,2.81574 2.87121,0.48361 5.72119,1.06348 8.61914,1.39876 3.07031,0.22998 6.1043,0.31269 9.13942,0.83845 2.32407,0.6048 4.81493,0.29038 7.10124,0.97219 0,0 -15.01721,10.41276 -15.01721,10.41276 l 0,0 c -2.31295,-0.30746 -4.64327,-0.48763 -6.93501,-0.95254 -2.99821,-0.44306 -6.03498,-0.39565 -9.03549,-0.83435 -3.01875,-0.40492 -6.07453,-0.84035 -9.01004,-1.64464 -2.39464,-0.97871 -4.75238,-2.05286 -7.25175,-2.75131 -2.51901,-0.79048 -5.08965,-1.41019 -7.62325,-2.15264 -3.55681,-0.97206 -6.93407,-2.42661 -10.32897,-3.85226 -4.0055,-1.68323 -7.9916,-3.41537 -12.06546,-4.92841 -4.01983,-1.44661 -8.08133,-2.74977 -12.12489,-4.12814 -3.51785,-1.41105 -6.95478,-2.99296 -10.38699,-4.59888 -3.1568,-1.32489 -6.16029,-2.96074 -9.16038,-4.60505 -2.74823,-1.55714 -5.51738,-3.08348 -8.30951,-4.55909 -3.10201,-1.37337 -6.09257,-2.99987 -9.29734,-4.1389 -2.97791,-1.35538 -5.82429,-2.95594 -8.77153,-4.37366 -2.92183,-1.36309 -5.74961,-2.92174 -8.67773,-4.27321 -2.84913,-1.42597 -5.58318,-3.02214 -7.72959,-5.42805 -2.48285,-2.11507 -5.34295,-3.74674 -8.08226,-5.50175 -3.24582,-1.85555 -6.6263,-3.29217 -10.14322,-4.5606 -2.59077,-0.95796 -5.25991,-1.56997 -8.01095,-1.8602 -2.97908,-0.35761 -5.97045,-0.25428 -8.96633,-0.23117 -2.85705,0.0568 -5.72018,0.16199 -8.55039,0.58616 -2.70001,0.48323 -5.38814,1.01998 -8.09687,1.44976 -2.95097,0.75855 -5.8129,1.84201 -8.75804,2.62928 -2.80212,0.91927 -5.65175,1.69698 -8.38998,2.80235 -2.69582,1.20501 -5.36383,2.48546 -7.93631,3.93782 26.96324,-15.63888 13.42559,-8.46136 7.90947,-3.92521 -1.94884,1.88635 -3.88426,3.78732 -5.79238,5.71485 -1.48345,1.61156 -2.85075,3.66232 -4.18447,5.40502 -1.55396,3.21876 -2.74313,6.56833 -3.6346,10.03967 -0.97932,4.24757 -2.0127,8.49802 -2.47411,12.84339 -0.43905,2.95843 -1.28509,5.7797 -1.85427,8.69887 -0.40782,3.20249 -0.80704,6.37518 -0.60373,9.61445 -0.005,3.40395 -0.12795,6.81393 0.10155,10.21346 0,0 -16.32831,8.31969 -16.32831,8.31969 z"
           id="path4433"
           style="opacity:0.98000004;fill:#000000;fill-opacity:1;stroke:#000000;stroke-width:0.98955548;stroke-miterlimit:4;stroke-dasharray:none;stroke-opacity:1" />
        <path
           d="m 347.3914,666.89478 c 0.46589,-3.82327 1.51668,-7.56345 2.63535,-11.2418 1.25991,-3.03002 2.49868,-6.08738 4.08833,-8.963 1.4854,-2.27021 3.2938,-4.30483 4.99995,-6.40907 1.54385,-2.36591 3.00049,-4.80268 4.37487,-7.27264 1.55266,-2.75831 3.46827,-5.28865 5.43375,-7.76172 1.98063,-2.08714 3.7714,-4.32388 5.42145,-6.67921 1.31279,-2.22753 3.24386,-3.87256 5.22942,-5.4672 7.49845,-4.76928 13.38706,-10.16226 21.8572,-10.54531 3.03455,0.0293 6.06914,0.005 9.10379,0.007 2.92843,-0.003 5.85667,0.0311 8.78508,0.037 3.35441,-0.10458 6.65614,-0.002 9.97751,0.44688 3.3641,0.25695 6.42043,1.75169 9.50843,2.98215 2.42949,1.14817 4.74541,2.53115 7.17599,3.66413 2.88538,1.39803 5.41404,3.39628 8.28482,4.81603 2.54648,2.1114 5.22759,3.94561 8.07179,5.62683 2.68674,1.96111 5.88373,2.89766 8.95052,4.06723 3.38126,1.52069 6.74996,3.00841 10.38291,3.79872 3.16402,0.83586 6.31237,1.65818 9.24781,3.13031 3.58953,1.72335 7.4313,2.7625 11.20231,3.99077 3.77084,1.3785 7.58198,2.69018 11.47849,3.66834 3.18403,0.7756 6.35003,1.48596 9.61483,1.82172 2.93194,0.25519 5.79465,0.95151 8.72968,1.23692 3.2517,0.0777 6.43516,0.74371 9.66228,1.09572 3.53978,0.34604 7.09852,0.39306 10.65215,0.41428 3.04416,0.004 6.08826,-0.0217 9.13237,-0.0352 2.67839,-0.0196 5.35668,0.004 8.03507,0.003 2.94342,0.0243 5.88668,-0.004 8.8301,-0.005 2.24813,-0.19003 3.5775,-0.0188 5.64252,0.75017 0,0 -15.1949,10.29033 -15.1949,10.29033 l 0,0 c -1.67119,-0.51766 -3.40485,-0.32277 -5.13691,-0.3681 -2.93958,-2.4e-4 -5.87901,-0.0288 -8.81859,-0.003 -2.6863,0.001 -5.37247,0.0273 -8.0588,0.016 -3.00903,-0.006 -6.01813,-0.0196 -9.02679,-0.0711 -3.60551,-0.0652 -7.22344,-0.0696 -10.8054,-0.53729 -3.23075,-0.40577 -6.44663,-0.89992 -9.70326,-1.05227 -2.91149,-0.36042 -5.771,-1.0476 -8.70008,-1.27786 -3.29662,-0.45038 -6.52206,-1.21684 -9.74038,-2.05599 -3.85469,-1.12747 -7.64319,-2.45808 -11.42667,-3.8023 -3.87198,-1.22433 -7.79128,-2.34349 -11.47132,-4.09239 -2.90521,-1.27683 -5.97441,-2.0427 -9.03782,-2.84421 -3.61033,-1.01369 -6.97184,-2.64908 -10.46765,-3.98764 -3.18292,-1.16331 -6.37147,-2.33126 -9.15519,-4.31875 -2.80806,-1.67574 -5.36967,-3.63755 -8.01659,-5.54093 -2.80182,-1.52347 -5.38267,-3.43237 -8.30136,-4.74294 -2.36424,-1.18358 -4.70615,-2.40963 -7.07406,-3.58667 -2.97451,-1.2192 -5.97228,-2.40426 -9.22051,-2.60356 -3.27918,-0.35667 -6.56752,-0.26338 -9.862,-0.26182 -2.9445,-4.1e-4 -5.88903,0.0237 -8.83346,-0.007 -3.02723,-0.0182 -6.0657,-0.0983 -9.08301,0.19056 -6.87596,0.96011 -17.1564,9.02203 9.7511,-6.99696 -2.09759,1.28979 -4.08447,2.96034 -5.60319,4.89536 -1.53409,2.43916 -3.20854,4.85724 -5.27468,6.87516 -2.14168,2.23722 -3.90138,4.81065 -5.57878,7.40789 -1.3979,2.527 -2.93939,4.94611 -4.26182,7.51682 -1.59442,2.19554 -3.34505,4.20147 -5.14078,6.23422 -1.75089,2.75022 -2.78683,5.79279 -4.34843,8.645 -1.1939,3.42493 -2.15169,6.97725 -2.58913,10.58211 0,0 -16.32831,8.31969 -16.32831,8.31969 z"
           id="path4437"
           style="opacity:0.98000004;fill:#000000;fill-opacity:1;stroke:#000000;stroke-width:0.98955548;stroke-miterlimit:4;stroke-dasharray:none;stroke-opacity:1" />
        <path
           style="opacity:0.98000004;fill:#000000;fill-opacity:1;stroke:#000000;stroke-width:0.98955548;stroke-miterlimit:4;stroke-dasharray:none;stroke-opacity:1"
           id="path4439"
           d="m 353.61353,669.36392 c -0.46589,-3.82327 -1.51668,-7.56345 -2.63535,-11.2418 -1.25991,-3.03002 -2.49868,-6.08738 -4.08833,-8.963 -1.4854,-2.27021 -3.2938,-4.30483 -4.99995,-6.40907 -1.54385,-2.36591 -3.00049,-4.80268 -4.37487,-7.27264 -1.55266,-2.75831 -3.46827,-5.28865 -5.43375,-7.76172 -1.98063,-2.08714 -3.7714,-4.32388 -5.42145,-6.67921 -1.31279,-2.22753 -3.24386,-3.87256 -5.22942,-5.4672 -7.49845,-4.76928 -13.38706,-10.16226 -21.8572,-10.54531 -3.03455,0.0293 -6.06914,0.005 -9.10379,0.007 -2.92843,-0.003 -5.85667,0.0311 -8.78508,0.037 -3.35441,-0.10458 -6.65614,-0.002 -9.97751,0.44688 -3.3641,0.25695 -6.42043,1.75169 -9.50843,2.98215 -2.42949,1.14817 -4.74541,2.53115 -7.17599,3.66413 -2.88538,1.39803 -5.41404,3.39628 -8.28482,4.81603 -2.54648,2.1114 -5.22759,3.94561 -8.07179,5.62683 -2.68674,1.96111 -5.88373,2.89766 -8.95052,4.06723 -3.38126,1.52069 -6.74996,3.00841 -10.38291,3.79872 -3.16402,0.83586 -6.31237,1.65818 -9.24781,3.13031 -3.58953,1.72335 -7.4313,2.7625 -11.20231,3.99077 -3.77084,1.3785 -7.58198,2.69018 -11.47849,3.66834 -3.18403,0.7756 -6.35003,1.48596 -9.61483,1.82172 -2.93194,0.25519 -5.79465,0.95151 -8.72968,1.23692 -3.2517,0.0777 -6.43516,0.74371 -9.66228,1.09572 -3.53978,0.34604 -7.09852,0.39306 -10.65215,0.41428 -3.04416,0.004 -6.08826,-0.0217 -9.13237,-0.0352 -2.67839,-0.0196 -5.35668,0.004 -8.03507,0.003 -2.94342,0.0243 -5.88668,-0.004 -8.8301,-0.005 -2.24813,-0.19003 -3.5775,-0.0188 -5.64252,0.75017 0,0 15.1949,10.29033 15.1949,10.29033 l 0,0 c 1.67119,-0.51766 3.40485,-0.32277 5.13691,-0.3681 2.93958,-2.4e-4 5.87901,-0.0288 8.81859,-0.003 2.6863,10e-4 5.37247,0.0273 8.0588,0.016 3.00903,-0.006 6.01813,-0.0196 9.02679,-0.0711 3.60551,-0.0652 7.22344,-0.0696 10.8054,-0.53729 3.23075,-0.40577 6.44663,-0.89992 9.70326,-1.05227 2.91149,-0.36042 5.771,-1.0476 8.70008,-1.27786 3.29662,-0.45038 6.52206,-1.21684 9.74038,-2.05599 3.85469,-1.12747 7.64319,-2.45808 11.42667,-3.8023 3.87198,-1.22433 7.79128,-2.34349 11.47132,-4.09239 2.90521,-1.27683 5.97441,-2.0427 9.03782,-2.84421 3.61033,-1.01369 6.97184,-2.64908 10.46765,-3.98764 3.18292,-1.16331 6.37147,-2.33126 9.15519,-4.31875 2.80806,-1.67574 5.36967,-3.63755 8.01659,-5.54093 2.80182,-1.52347 5.38267,-3.43237 8.30136,-4.74294 2.36424,-1.18358 4.70615,-2.40963 7.07406,-3.58667 2.97451,-1.2192 5.97228,-2.40426 9.22051,-2.60356 3.27918,-0.35667 6.56752,-0.26338 9.862,-0.26182 2.9445,-4.1e-4 5.88903,0.0237 8.83346,-0.007 3.02723,-0.0182 6.0657,-0.0983 9.08301,0.19056 6.87596,0.96011 17.1564,9.02203 -9.7511,-6.99696 2.09759,1.28979 4.08447,2.96034 5.60319,4.89536 1.53409,2.43916 3.20854,4.85724 5.27468,6.87516 2.14168,2.23722 3.90138,4.81065 5.57878,7.40789 1.3979,2.527 2.93939,4.94611 4.26182,7.51682 1.59442,2.19554 3.34505,4.20147 5.14078,6.23422 1.75089,2.75022 2.78683,5.79279 4.34843,8.645 1.1939,3.42493 2.15169,6.97725 2.58913,10.58211 0,0 16.32831,8.31969 16.32831,8.31969 z" />
        <path
           id="path4443"
           d="m 354.32099,509.15233 1.23457,-100"
           style="fill:none;fill-rule:evenodd;stroke:#000000;stroke-width:7;stroke-linecap:butt;stroke-linejoin:miter;stroke-miterlimit:4;stroke-dasharray:none;stroke-opacity:1" />
        <path
           id="path4445"
           d="M 449.94646,346.79814 355.81142,453.46585 258.68795,346.79814"
           style="fill:none;fill-rule:evenodd;stroke:#000000;stroke-width:8.74515533;stroke-linecap:butt;stroke-linejoin:miter;stroke-miterlimit:4;stroke-dasharray:none;stroke-opacity:1" />
        <path
           d="m 374.36521,392.07358 a 19.977362,19.996742 0 0 1 -19.95607,19.99673 19.977362,19.996742 0 0 1 -19.99861,-19.9541 19.977362,19.996742 0 0 1 19.91343,-20.03927 19.977362,19.996742 0 0 1 20.04107,19.91137"
           transform="matrix(0.99992175,0.01250979,0,1,0,0)"
           id="path4447"
           style="opacity:0.98000004;fill:#000000;fill-opacity:1;fill-rule:evenodd;stroke:#000000;stroke-width:0.35691154;stroke-linecap:butt;stroke-linejoin:miter;stroke-miterlimit:4;stroke-dasharray:none;stroke-opacity:1" />
      </g>
    </g>
  </g>
</svg>
